{"glyphs":{"0":{"ha":772,"x_min":52,"x_max":721,"o":"m 386 -26 q 139 104 226 -26 q 52 475 52 234 q 139 846 52 715 q 386 977 226 977 q 634 846 547 977 q 721 475 721 715 q 634 104 721 234 q 386 -26 547 -26 l 386 -26 m 386 83 q 541 181 489 83 q 591 475 592 279 q 541 769 592 671 q 386 867 489 867 q 233 769 283 867 q 181 475 182 671 q 233 181 182 279 q 386 83 283 83 l 386 83 z "},"1":{"ha":772,"x_min":140,"x_max":498,"o":"m 369 0 l 369 693 l 369 693 l 140 693 l 140 791 q 304 834 241 789 q 399 977 368 880 l 498 977 l 498 977 l 498 0 l 498 0 l 434 0 l 369 0 l 369 0 z "},"2":{"ha":772,"x_min":36,"x_max":705,"o":"m 705 689 q 649 512 705 581 q 441 358 594 442 q 216 192 276 267 q 174 119 191 159 l 174 119 l 705 119 l 705 0 l 36 0 l 36 0 q 113 252 36 154 q 400 466 189 350 q 540 570 503 523 q 577 692 577 618 q 522 820 577 770 q 379 869 466 869 q 236 807 288 869 q 181 631 184 745 l 181 631 l 62 631 l 62 631 q 149 885 60 793 q 396 977 237 977 q 618 896 532 977 q 705 689 705 816 z "},"3":{"ha":772,"x_min":47,"x_max":725,"o":"m 564 711 q 512 824 564 781 q 377 868 459 868 q 244 815 290 868 q 193 656 198 762 l 193 656 l 75 656 l 75 656 q 155 893 75 809 q 382 977 235 977 q 607 907 522 977 q 692 724 692 838 q 606 541 692 610 q 571 516 590 527 l 571 516 q 633 479 606 500 q 725 285 725 407 q 630 61 725 148 q 386 -26 535 -26 q 138 53 222 -26 q 47 294 55 132 l 47 294 l 176 294 l 176 294 q 236 131 186 180 q 390 82 286 82 q 538 134 480 82 q 595 267 595 186 q 540 403 595 353 q 418 452 492 446 q 352 454 383 454 q 311 451 321 454 l 311 558 q 357 555 326 555 q 419 559 389 555 q 515 597 478 566 q 564 711 564 638 z "},"4":{"ha":772,"x_min":35,"x_max":726,"o":"m 465 234 l 35 234 l 35 291 l 35 348 l 486 976 l 537 976 l 588 976 l 588 338 l 588 338 l 726 338 l 726 234 l 588 234 l 588 234 l 588 0 l 465 0 l 465 234 l 465 234 m 465 338 l 465 338 l 465 784 l 465 784 l 465 784 l 154 348 l 147 338 l 147 338 l 465 338 z "},"5":{"ha":772,"x_min":45,"x_max":714,"o":"m 714 314 q 620 69 714 164 q 379 -26 526 -26 q 144 47 233 -26 q 45 249 55 120 l 45 249 l 172 249 l 172 249 q 237 123 182 168 q 385 79 293 79 q 529 140 473 79 q 585 299 585 202 q 526 461 585 401 q 368 521 468 521 q 264 495 315 521 q 188 429 214 469 l 85 436 l 155 957 l 155 957 l 661 957 l 661 838 l 247 838 l 247 838 l 205 571 l 205 571 l 209 574 q 379 629 290 629 q 624 544 533 629 q 714 314 714 459 z "},"6":{"ha":772,"x_min":53,"x_max":720,"o":"m 413 977 q 618 907 542 977 q 700 715 694 838 l 700 715 l 579 715 l 579 715 q 529 827 572 788 q 413 867 486 867 q 239 758 300 867 q 180 505 186 665 l 180 505 q 412 621 271 621 q 635 532 551 621 q 720 297 720 443 q 628 62 720 151 q 386 -26 536 -26 q 139 97 226 -26 q 53 450 53 221 q 147 840 53 703 q 413 977 241 977 m 195 297 q 251 143 195 203 q 393 83 306 83 q 535 143 479 83 q 590 297 590 203 q 535 451 590 391 q 393 511 479 511 q 250 451 306 511 q 195 297 195 391 z "},"7":{"ha":772,"x_min":52,"x_max":726,"o":"m 193 0 q 340 454 239 245 q 595 838 439 656 l 595 838 l 52 838 l 52 957 l 726 957 l 726 903 l 726 848 q 469 452 566 660 q 329 0 371 244 l 193 0 z "},"8":{"ha":772,"x_min":53,"x_max":718,"o":"m 555 517 l 555 517 q 627 473 594 499 q 718 277 718 399 q 627 57 718 140 q 385 -26 535 -26 q 144 57 235 -26 q 53 277 53 140 q 144 473 53 399 q 215 516 176 499 l 215 516 q 168 546 191 530 q 86 714 86 610 q 169 904 86 832 q 385 977 251 977 q 602 904 519 977 q 684 714 684 832 q 602 546 684 610 q 555 517 580 529 m 385 568 q 507 609 460 568 q 555 717 555 651 q 507 825 555 783 q 385 867 460 867 q 263 825 311 867 q 216 717 216 783 q 263 609 216 651 q 385 568 311 568 m 385 462 q 239 409 296 462 q 182 272 182 355 q 239 136 182 189 q 385 83 296 83 q 532 136 475 83 q 589 272 589 189 q 532 409 589 355 q 385 462 475 462 z "},"9":{"ha":772,"x_min":58,"x_max":714,"o":"m 360 -27 q 154 42 231 -27 q 71 234 77 112 l 71 234 l 189 234 l 189 234 q 241 118 197 159 q 360 77 286 77 q 530 199 470 77 q 586 440 573 291 l 586 440 q 360 328 495 328 q 141 417 224 328 q 58 652 58 507 q 149 887 58 798 q 387 976 239 976 q 629 864 544 976 q 714 547 714 753 q 622 122 714 271 q 360 -27 530 -27 m 572 652 q 518 806 572 747 q 380 866 465 866 q 241 806 295 866 q 188 652 188 747 q 241 498 188 558 q 380 438 295 438 q 518 498 465 438 q 572 652 572 558 z "}," ":{"ha":386,"x_min":0,"x_max":0,"o":""},"!":{"ha":386,"x_min":125,"x_max":262,"o":"m 158 237 l 126 689 l 126 999 l 193 999 l 261 999 l 261 689 l 229 237 l 193 237 l 193 237 l 158 237 m 125 140 l 262 140 l 262 0 l 125 0 l 125 140 z "},"\"":{"ha":493,"x_min":97,"x_max":396,"o":"m 97 644 l 97 997 l 198 997 l 198 644 l 97 644 m 295 644 l 295 997 l 396 997 l 396 644 l 295 644 z "},"#":{"ha":772,"x_min":39,"x_max":734,"o":"m 368 957 l 326 661 l 498 661 l 541 957 l 629 957 l 587 661 l 734 661 l 722 573 l 574 573 l 547 376 l 694 376 l 682 289 l 534 289 l 493 -1 l 405 -1 l 446 289 l 274 289 l 233 -1 l 144 -1 l 186 289 l 39 289 l 51 376 l 198 376 l 226 573 l 79 573 l 91 661 l 238 661 l 280 957 l 368 957 m 313 573 l 286 376 l 458 376 l 486 573 l 313 573 z "},"$":{"ha":772,"x_min":45,"x_max":722,"o":"m 418 1072 l 418 993 q 610 923 536 984 q 703 726 697 851 l 703 726 l 585 726 l 585 726 q 524 849 578 806 q 418 890 483 882 l 418 553 l 463 542 q 661 442 598 507 q 722 270 722 377 q 634 53 722 134 q 418 -27 553 -21 l 418 -163 l 352 -163 l 352 -26 q 131 52 208 -16 q 45 283 45 131 l 45 290 l 45 290 l 165 290 l 165 290 q 223 128 168 178 q 352 80 268 88 l 352 444 l 334 448 q 129 548 193 484 q 64 713 64 611 q 149 918 64 842 q 352 994 227 987 l 352 1072 l 418 1072 m 352 892 q 236 849 278 886 q 188 724 188 806 q 229 629 188 668 q 352 571 271 591 l 352 891 l 352 892 m 418 79 q 548 122 501 83 q 600 250 600 166 q 560 358 600 315 q 443 420 522 400 l 418 427 l 418 78 l 418 79 z "},"%":{"ha":1235,"x_min":54,"x_max":1181,"o":"m 290 491 q 124 561 194 491 q 54 728 54 631 q 124 896 54 825 q 290 966 194 966 q 457 896 387 966 q 527 728 527 825 q 457 561 527 631 q 290 491 387 491 l 290 491 m 290 869 q 192 827 233 869 q 151 728 151 785 q 192 630 151 671 q 290 589 233 589 q 389 630 347 589 q 430 728 430 671 q 389 827 430 785 q 290 869 347 869 l 290 869 m 296 -23 l 863 977 l 939 977 l 372 -23 l 296 -23 m 944 -4 q 778 66 848 -4 q 708 233 708 136 q 778 401 708 330 q 944 471 848 471 q 1111 401 1040 471 q 1181 233 1181 330 q 1111 66 1181 136 q 944 -4 1040 -4 l 944 -4 m 944 374 q 846 332 887 374 q 805 233 805 290 q 846 135 805 176 q 944 94 887 94 q 1042 135 1001 94 q 1084 233 1084 176 q 1042 332 1084 290 q 944 374 1001 374 l 944 374 z "},"&":{"ha":926,"x_min":61,"x_max":896,"o":"m 178 766 q 245 931 178 868 q 421 994 312 994 q 584 935 522 994 q 646 779 646 876 q 582 636 646 711 q 459 534 533 578 l 631 322 l 646 304 l 649 311 q 688 467 680 389 l 796 467 q 748 270 787 368 q 722 212 736 239 l 896 0 l 743 0 l 652 109 q 516 11 589 44 q 355 -22 442 -22 q 142 50 223 -22 q 61 241 61 123 q 125 430 61 351 q 284 555 175 492 l 277 562 q 205 673 233 616 q 178 766 178 729 m 366 86 q 476 114 419 86 q 574 185 533 141 l 581 193 l 509 280 l 351 473 q 241 388 283 432 q 182 254 182 323 q 233 132 182 179 q 366 86 283 86 m 298 786 q 318 725 298 763 q 370 646 338 686 l 397 612 q 475 675 442 642 q 525 775 525 728 q 494 858 525 827 q 412 890 463 890 q 330 861 361 890 q 298 786 298 833 z "},"'":{"ha":265,"x_min":82,"x_max":183,"o":"m 82 644 l 82 997 l 183 997 l 183 644 l 82 644 z "},"(":{"ha":463,"x_min":94,"x_max":415,"o":"m 94 366 q 151 692 94 536 q 332 1019 208 848 l 415 1019 q 270 688 316 844 q 224 366 224 531 q 270 43 224 200 q 415 -287 316 -113 l 332 -287 q 151 40 208 -117 q 94 366 94 197 z "},")":{"ha":463,"x_min":47,"x_max":368,"o":"m 368 366 q 311 40 368 196 q 131 -287 254 -117 l 47 -287 q 192 44 146 -113 q 238 366 238 201 q 192 688 238 532 q 47 1019 146 845 l 131 1019 q 311 692 254 848 q 368 366 368 535 z "},"*":{"ha":541,"x_min":54,"x_max":484,"o":"m 311 1002 l 307 842 l 307 842 l 457 896 l 484 816 l 329 772 l 329 772 l 427 647 l 359 597 l 268 730 l 268 730 l 178 598 l 110 647 l 208 773 l 208 773 l 54 817 l 80 897 l 232 843 l 232 843 l 227 1002 l 311 1002 z "},"+":{"ha":811,"x_min":54,"x_max":757,"o":"m 355 298 l 54 298 l 54 400 l 355 400 l 355 701 l 456 701 l 456 400 l 757 400 l 757 298 l 456 298 l 456 -2 l 355 -2 l 355 298 z "},",":{"ha":386,"x_min":121,"x_max":265,"o":"m 121 74 l 121 148 l 193 148 l 265 148 l 265 24 q 232 -133 265 -81 q 121 -205 199 -186 l 121 -205 l 121 -140 l 121 -140 q 180 -93 163 -133 q 195 0 193 -62 l 193 0 l 121 0 l 121 74 z "},"-":{"ha":463,"x_min":61,"x_max":401,"o":"m 61 447 l 401 447 l 401 321 l 61 321 l 61 447 z "},".":{"ha":386,"x_min":121,"x_max":266,"o":"m 121 147 l 266 147 l 266 0 l 121 0 l 121 147 z "},"/":{"ha":386,"x_min":-23,"x_max":409,"o":"m 409 1023 l 70 -27 l -23 -27 l 316 1023 l 409 1023 z "},":":{"ha":386,"x_min":121,"x_max":266,"o":"m 121 147 l 266 147 l 266 0 l 121 0 l 121 147 m 121 718 l 266 718 l 266 571 l 121 571 l 121 718 z "},";":{"ha":386,"x_min":121,"x_max":266,"o":"m 121 74 l 121 148 l 193 148 l 265 148 l 265 24 q 232 -134 265 -81 q 121 -205 199 -186 l 121 -205 l 121 -142 l 121 -142 q 180 -94 163 -134 q 195 0 193 -63 l 193 0 l 121 0 l 121 74 m 121 718 l 266 718 l 266 571 l 121 571 l 121 718 z "},"<":{"ha":811,"x_min":66,"x_max":745,"o":"m 66 298 l 66 349 l 66 400 l 745 688 l 745 577 l 208 349 l 208 349 l 745 121 l 745 11 l 66 298 z "},"=":{"ha":811,"x_min":54,"x_max":757,"o":"m 54 260 l 757 260 l 757 158 l 54 158 l 54 260 m 54 541 l 757 541 l 757 439 l 54 439 l 54 541 z "},">":{"ha":811,"x_min":66,"x_max":745,"o":"m 745 298 l 66 11 l 66 121 l 604 349 l 604 349 l 66 577 l 66 688 l 745 400 l 745 349 l 745 298 z "},"?":{"ha":772,"x_min":78,"x_max":684,"o":"m 393 907 q 254 856 300 907 q 197 691 208 805 l 197 691 l 78 691 l 78 691 q 168 930 85 846 q 393 1014 250 1014 q 603 940 523 1014 q 684 745 684 865 q 649 613 684 675 q 533 478 614 552 q 459 380 480 431 q 440 259 438 330 l 321 259 q 349 430 318 359 q 454 568 379 500 q 532 656 509 615 q 555 745 555 697 q 511 863 555 819 q 393 907 467 907 m 313 141 l 448 141 l 448 0 l 313 0 l 313 141 z "},"@":{"ha":1410,"x_min":204,"x_max":1206,"o":"m 913 279 q 1053 376 987 279 q 1118 582 1118 473 q 1005 833 1118 730 q 728 936 892 936 q 427 809 550 936 q 304 498 304 682 q 429 187 304 314 q 734 60 553 60 q 932 103 836 60 q 1084 219 1029 147 l 1176 219 q 992 40 1113 108 q 739 -28 872 -28 q 359 124 514 -28 q 204 498 204 277 q 355 871 204 719 q 725 1023 507 1023 q 1066 895 927 1023 q 1206 582 1206 767 q 1103 313 1206 433 q 876 192 1001 192 q 800 240 822 192 q 789 274 793 256 l 789 274 l 779 264 q 612 192 703 192 q 469 255 523 192 q 415 423 415 319 q 511 686 415 576 q 740 797 608 797 q 887 691 840 797 l 892 679 l 892 679 l 920 775 l 920 775 l 1018 775 l 897 357 q 891 302 886 325 q 913 279 896 279 m 737 696 q 590 612 653 696 q 526 415 527 528 q 556 323 526 355 q 642 292 585 292 q 754 341 701 292 q 829 469 807 391 q 833 632 859 569 q 737 696 807 696 z "},"A":{"ha":926,"x_min":20,"x_max":908,"o":"m 20 0 l 396 997 l 473 997 l 550 997 l 908 0 l 908 0 l 836 0 l 763 0 l 763 0 l 662 289 l 662 289 l 263 289 l 263 289 l 159 0 l 159 0 l 90 0 l 20 0 l 20 0 m 467 850 l 307 408 l 307 408 l 621 408 l 621 408 l 467 850 l 467 850 l 467 850 z "},"B":{"ha":926,"x_min":103,"x_max":871,"o":"m 103 0 l 103 997 l 103 997 l 170 997 l 170 997 l 541 997 q 747 931 669 997 q 825 759 825 866 q 732 565 825 635 q 687 537 711 549 l 687 537 q 773 493 736 519 q 871 296 871 422 q 775 78 871 157 q 511 0 680 0 l 170 0 l 170 0 l 103 0 l 103 0 m 238 882 l 238 572 l 238 572 l 479 572 q 640 612 589 572 q 690 737 690 652 q 644 847 690 812 q 496 882 597 882 l 238 882 l 238 882 m 238 463 l 238 115 l 238 115 l 513 115 q 683 160 629 115 q 736 301 736 205 q 680 424 736 385 q 503 463 624 463 l 238 463 l 238 463 z "},"C":{"ha":1003,"x_min":61,"x_max":946,"o":"m 946 367 l 946 367 q 805 78 920 182 q 512 -27 689 -27 q 183 115 306 -27 q 61 498 61 257 q 188 881 61 739 q 530 1024 315 1024 q 807 937 699 1024 q 937 698 916 850 l 937 698 l 807 698 l 807 698 q 715 851 788 797 q 528 905 642 905 q 289 794 378 905 q 200 498 200 684 q 282 196 200 300 q 522 92 365 92 q 714 164 637 92 q 816 367 791 235 l 816 367 l 946 367 z "},"D":{"ha":1003,"x_min":113,"x_max":937,"o":"m 113 0 l 113 997 l 113 997 l 180 997 l 180 997 l 522 997 q 824 862 712 997 q 937 498 937 726 q 822 135 937 270 q 511 0 707 0 l 180 0 l 180 0 l 113 0 l 113 0 m 248 115 l 248 115 l 494 115 q 719 215 640 115 q 798 498 798 315 q 722 782 798 682 q 506 882 646 882 l 248 882 l 248 882 l 248 115 z "},"E":{"ha":926,"x_min":119,"x_max":856,"o":"m 119 0 l 119 0 l 119 997 l 119 997 l 848 997 l 848 997 l 848 937 l 848 878 l 848 878 l 254 878 l 254 878 l 254 573 l 254 573 l 797 573 l 797 513 l 797 454 l 797 454 l 254 454 l 254 454 l 254 119 l 254 119 l 856 119 l 856 119 l 856 60 l 856 0 l 856 0 l 119 0 z "},"F":{"ha":848,"x_min":119,"x_max":810,"o":"m 119 0 l 119 997 l 119 997 l 810 997 l 810 997 l 810 937 l 810 878 l 810 878 l 254 878 l 254 878 l 254 573 l 254 573 l 741 573 l 741 513 l 741 454 l 741 454 l 254 454 l 254 454 l 254 0 l 187 0 l 119 0 z "},"G":{"ha":1080,"x_min":66,"x_max":977,"o":"m 530 -27 q 195 118 323 -27 q 66 498 66 262 q 197 879 66 734 q 540 1024 328 1024 q 821 932 703 1024 q 959 698 939 841 l 959 698 l 829 698 l 829 698 q 732 851 810 797 q 532 905 655 905 q 296 792 386 905 q 205 496 205 679 q 293 195 205 301 q 538 88 380 88 q 787 201 692 88 q 814 238 802 218 q 842 312 831 264 q 853 402 853 359 l 853 414 l 853 414 l 541 414 l 541 528 l 977 528 l 977 1 l 893 1 l 861 126 l 861 126 l 853 117 q 530 -27 730 -27 z "},"H":{"ha":1003,"x_min":107,"x_max":897,"o":"m 107 0 l 107 997 l 107 997 l 174 997 l 242 997 l 242 997 l 242 588 l 242 588 l 762 588 l 762 588 l 762 997 l 762 997 l 829 997 l 897 997 l 897 997 l 897 0 l 897 0 l 830 0 l 762 0 l 762 0 l 762 469 l 762 469 l 242 469 l 242 469 l 242 0 l 242 0 l 175 0 l 107 0 l 107 0 z "},"I":{"ha":386,"x_min":126,"x_max":261,"o":"m 126 0 l 126 997 l 126 997 l 193 997 l 261 997 l 261 997 l 261 0 l 261 0 l 194 0 l 126 0 l 126 0 z "},"J":{"ha":694,"x_min":24,"x_max":595,"o":"m 460 997 l 460 997 l 527 997 l 595 997 l 595 997 l 595 280 q 520 53 595 133 q 309 -27 446 -27 q 94 47 170 -27 q 24 253 18 122 l 24 322 l 150 322 l 150 253 q 189 131 150 174 q 301 87 229 87 q 417 139 374 87 q 460 280 460 191 l 460 280 l 460 997 z "},"K":{"ha":926,"x_min":106,"x_max":921,"o":"m 106 0 l 106 997 l 106 997 l 173 997 l 241 997 l 241 997 l 241 513 l 241 513 l 726 997 l 726 997 l 819 997 l 913 997 l 913 997 l 490 589 l 490 589 l 921 0 l 921 0 l 833 0 l 745 0 l 745 0 l 391 493 l 391 493 l 241 348 l 241 348 l 241 0 l 241 0 l 174 0 l 106 0 l 106 0 z "},"L":{"ha":772,"x_min":106,"x_max":746,"o":"m 106 0 l 106 0 l 106 997 l 106 997 l 173 997 l 241 997 l 241 997 l 241 119 l 241 119 l 746 119 l 746 119 l 746 60 l 746 0 l 746 0 l 106 0 z "},"M":{"ha":1157,"x_min":102,"x_max":1057,"o":"m 233 0 l 233 0 l 168 0 l 102 0 l 102 0 l 102 997 l 102 997 l 199 997 l 296 997 l 296 997 l 581 149 l 581 149 l 581 149 l 863 997 l 863 997 l 960 997 l 1057 997 l 1057 997 l 1057 0 l 1057 0 l 992 0 l 926 0 l 926 0 l 926 844 l 926 844 l 645 0 l 580 0 l 515 0 l 233 841 l 233 841 l 233 0 z "},"N":{"ha":1003,"x_min":106,"x_max":897,"o":"m 236 0 l 236 0 l 171 0 l 106 0 l 106 0 l 106 997 l 106 997 l 186 997 l 268 997 l 268 997 l 767 186 l 767 186 l 767 186 l 767 997 l 767 997 l 832 997 l 897 997 l 897 997 l 897 0 l 823 0 l 749 0 l 236 813 l 236 813 l 236 813 l 236 0 z "},"O":{"ha":1080,"x_min":54,"x_max":1026,"o":"m 540 -27 q 189 118 323 -27 q 54 498 54 262 q 189 879 54 734 q 540 1024 323 1024 q 892 879 758 1024 q 1026 498 1026 734 q 892 118 1026 262 q 540 -27 758 -27 l 540 -27 m 540 92 q 791 204 696 92 q 887 498 887 316 q 791 792 887 680 q 540 905 696 905 q 289 792 385 905 q 193 498 193 680 q 289 204 193 316 q 540 92 385 92 l 540 92 z "},"P":{"ha":926,"x_min":119,"x_max":864,"o":"m 119 0 l 119 997 l 119 997 l 186 997 l 186 997 l 555 997 q 782 924 701 997 q 864 722 864 851 q 782 500 864 581 q 555 420 701 420 q 254 419 365 421 l 254 419 l 254 0 l 254 0 l 187 0 l 119 0 l 119 0 m 254 536 l 254 536 l 522 536 q 676 580 627 536 q 725 720 725 625 q 676 843 725 804 q 522 882 627 882 l 254 882 l 254 882 l 254 536 z "},"Q":{"ha":1080,"x_min":54,"x_max":1026,"o":"m 951 -76 l 802 41 l 802 41 q 540 -27 690 -26 q 189 118 323 -27 q 54 498 54 262 q 189 879 54 734 q 540 1024 323 1024 q 892 879 758 1024 q 1026 498 1026 734 q 892 117 1026 262 l 882 108 l 882 108 l 910 85 q 1016 0 1010 5 l 951 -76 m 589 209 l 654 290 l 779 191 l 779 191 l 791 204 q 887 498 887 316 q 791 792 887 680 q 540 905 696 905 q 289 792 385 905 q 193 498 193 680 q 289 204 193 316 q 540 92 385 92 q 694 125 627 94 l 694 125 l 589 209 z "},"R":{"ha":1003,"x_min":122,"x_max":950,"o":"m 122 0 l 122 997 l 122 997 l 189 997 l 189 997 l 586 997 q 827 928 745 997 q 910 726 910 859 q 824 522 910 595 q 777 489 802 503 l 777 489 l 800 478 q 894 302 890 426 l 899 121 q 911 56 901 76 q 950 22 921 37 l 950 1 l 784 1 q 773 64 779 13 q 765 179 768 116 l 762 258 q 717 390 760 351 q 577 430 674 430 l 257 430 l 257 430 l 257 0 l 257 0 l 190 0 l 122 0 l 122 0 m 257 547 l 257 547 l 591 547 q 728 588 684 547 q 771 718 771 629 q 725 844 771 804 q 581 884 680 884 l 257 884 l 257 884 l 257 547 z "},"S":{"ha":926,"x_min":68,"x_max":861,"o":"m 713 708 l 713 708 q 639 853 705 802 q 463 905 574 905 q 290 861 349 905 q 231 732 231 817 q 271 646 231 674 q 429 589 310 617 l 602 548 q 802 450 742 515 q 861 267 861 385 q 759 52 861 132 q 480 -27 656 -27 q 175 64 285 -27 q 68 311 68 155 l 68 319 l 68 319 l 192 319 l 192 319 q 271 151 195 210 q 480 92 346 92 q 669 135 604 92 q 733 260 733 178 q 690 367 733 332 q 521 431 648 401 l 347 473 q 159 559 216 504 q 103 713 103 615 q 200 940 103 857 q 463 1024 298 1024 q 731 940 631 1024 q 838 708 831 856 l 838 708 l 713 708 z "},"T":{"ha":848,"x_min":20,"x_max":829,"o":"m 357 0 l 357 878 l 357 878 l 20 878 l 20 878 l 20 937 l 20 997 l 20 997 l 829 997 l 829 997 l 829 937 l 829 878 l 829 878 l 492 878 l 492 878 l 492 0 l 492 0 l 425 0 l 357 0 l 357 0 z "},"U":{"ha":1003,"x_min":110,"x_max":895,"o":"m 895 366 q 791 77 895 181 q 503 -27 687 -27 q 210 73 311 -27 q 110 366 110 173 l 110 997 l 110 997 l 177 997 l 245 997 l 245 997 l 245 376 q 311 164 245 237 q 503 92 376 92 q 694 164 629 92 q 760 376 760 237 l 760 997 l 760 997 l 827 997 l 895 997 l 895 997 l 895 366 z "},"V":{"ha":926,"x_min":28,"x_max":899,"o":"m 28 997 l 28 997 l 102 997 l 178 997 l 178 997 l 464 145 l 464 145 l 464 145 l 749 997 l 749 997 l 824 997 l 899 997 l 899 997 l 536 0 l 463 0 l 391 0 l 28 997 z "},"W":{"ha":1311,"x_min":22,"x_max":1289,"o":"m 283 0 l 22 997 l 22 997 l 95 997 l 168 997 l 168 997 l 346 209 q 354 171 351 189 q 357 146 357 153 l 357 146 q 360 173 357 155 q 368 209 363 191 l 579 997 l 655 997 l 731 997 l 941 213 q 949 176 946 195 q 953 148 953 157 l 953 148 q 956 174 953 155 q 964 213 959 193 l 1143 997 l 1143 997 l 1216 997 l 1289 997 l 1289 997 l 1027 0 l 955 0 l 882 0 l 666 771 q 656 810 661 791 q 652 836 652 829 l 652 836 q 649 809 652 827 q 640 771 646 790 l 429 0 l 356 0 l 283 0 z "},"X":{"ha":926,"x_min":26,"x_max":900,"o":"m 26 0 l 380 498 l 380 498 l 49 997 l 49 997 l 132 997 l 216 997 l 216 997 l 460 608 l 460 608 l 460 608 l 724 997 l 724 997 l 804 997 l 886 997 l 886 997 l 536 507 l 536 507 l 900 0 l 900 0 l 817 0 l 734 0 l 734 0 l 461 401 l 461 401 l 461 401 l 191 0 l 191 0 l 109 0 l 26 0 l 26 0 z "},"Y":{"ha":926,"x_min":20,"x_max":907,"o":"m 396 399 l 396 399 l 20 997 l 20 997 l 98 997 l 178 997 l 178 997 l 464 513 l 464 513 l 751 997 l 751 997 l 829 997 l 907 997 l 907 997 l 531 397 l 531 397 l 531 0 l 464 0 l 396 0 l 396 399 z "},"Z":{"ha":848,"x_min":32,"x_max":816,"o":"m 32 117 l 647 878 l 647 878 l 80 878 l 80 878 l 80 937 l 80 997 l 80 997 l 816 997 l 816 939 l 816 880 l 201 119 l 201 119 l 815 119 l 815 119 l 815 60 l 815 0 l 815 0 l 32 0 l 32 58 l 32 117 z "},"[":{"ha":386,"x_min":87,"x_max":347,"o":"m 87 -273 l 87 1004 l 87 1004 l 347 1004 l 347 905 l 197 905 l 197 905 l 197 -174 l 197 -174 l 347 -174 l 347 -273 l 87 -273 l 87 -273 z "},"\\":{"ha":386,"x_min":-23,"x_max":409,"o":"m 316 -27 l -23 1023 l 70 1023 l 409 -27 l 316 -27 z "},"]":{"ha":386,"x_min":39,"x_max":298,"o":"m 298 -273 l 298 -273 l 39 -273 l 39 -174 l 189 -174 l 189 -174 l 189 905 l 189 905 l 39 905 l 39 1004 l 298 1004 l 298 1004 l 298 -273 z "},"^":{"ha":652,"x_min":-19,"x_max":671,"o":"m 373 958 l 671 363 l 564 363 l 325 842 l 325 842 l 87 363 l -19 363 l 278 958 l 326 958 l 373 958 z "},"_":{"ha":772,"x_min":0,"x_max":772,"o":"m 0 -172 l 0 -102 l 772 -102 l 772 -172 l 0 -172 z "},"`":{"ha":463,"x_min":20,"x_max":293,"o":"m 201 823 l 20 1019 l 171 1019 l 293 823 l 201 823 z "},"a":{"ha":772,"x_min":50,"x_max":736,"o":"m 281 -20 q 113 37 175 -20 q 50 191 50 94 q 109 347 50 289 q 280 418 168 404 l 446 439 q 485 446 467 441 q 522 471 509 452 q 534 517 534 489 l 534 523 q 490 614 534 581 q 368 647 446 647 q 250 612 292 647 q 199 508 208 577 l 199 508 l 86 508 l 86 508 q 170 687 95 627 q 386 747 245 747 q 587 690 518 747 q 656 523 656 633 l 656 124 q 668 95 656 106 q 698 83 679 83 q 714 85 703 83 q 736 89 724 86 l 736 1 q 699 -10 719 -6 q 666 -14 680 -14 q 566 24 597 -14 q 536 95 545 49 l 536 95 q 505 62 523 78 q 281 -20 414 -20 m 534 288 l 534 366 l 534 366 q 459 344 500 350 l 347 328 q 218 287 259 315 q 178 208 178 258 q 211 114 178 147 q 305 81 244 81 q 468 134 401 81 q 528 216 513 170 q 532 244 531 225 q 534 288 534 264 z "},"b":{"ha":772,"x_min":81,"x_max":718,"o":"m 81 997 l 81 997 l 142 997 l 203 997 l 203 997 l 203 631 l 203 631 q 410 747 283 749 q 635 649 552 747 q 718 385 718 551 q 634 88 718 195 q 402 -20 551 -20 q 207 75 279 -20 l 195 90 l 195 90 l 195 0 l 195 0 l 81 0 l 81 0 l 81 997 m 396 86 q 541 158 492 86 q 591 369 591 231 q 543 571 591 505 q 397 636 496 636 q 249 562 296 636 q 203 328 203 488 l 203 328 l 203 328 l 203 328 q 253 149 203 212 q 396 86 303 86 z "},"c":{"ha":694,"x_min":41,"x_max":663,"o":"m 663 261 l 663 261 q 566 52 644 124 q 358 -20 488 -20 q 127 84 214 -20 q 41 363 41 188 q 131 643 41 539 q 370 747 220 747 q 579 676 501 747 q 663 479 657 604 l 663 479 l 545 479 l 545 479 q 491 600 538 557 q 366 642 444 642 q 221 568 274 642 q 169 363 169 494 q 218 155 169 225 q 363 85 267 85 q 482 131 434 85 q 545 261 530 177 l 545 261 l 663 261 z "},"d":{"ha":772,"x_min":49,"x_max":693,"o":"m 367 -20 q 135 89 221 -20 q 49 383 49 198 q 132 647 49 547 q 350 747 216 747 q 562 634 484 747 l 571 621 l 571 621 l 571 997 l 571 997 l 632 997 l 693 997 l 693 997 l 693 0 l 693 0 l 637 0 l 580 0 l 580 0 l 580 99 l 580 99 l 564 77 q 367 -20 489 -20 m 374 637 q 224 572 271 637 q 176 364 176 507 q 228 157 176 230 q 374 85 279 85 q 517 152 463 85 q 571 328 571 218 q 520 557 571 477 q 374 637 469 637 z "},"e":{"ha":772,"x_min":56,"x_max":717,"o":"m 386 -20 q 144 78 232 -20 q 56 348 56 176 q 149 639 56 531 q 399 747 242 747 q 629 642 542 747 q 717 363 717 536 l 715 320 l 715 320 l 185 320 l 185 320 q 235 155 193 212 q 397 85 286 85 q 519 125 467 85 q 583 225 572 164 l 583 225 l 704 225 l 704 225 q 595 43 677 106 q 386 -20 514 -20 m 589 418 l 589 418 q 539 576 584 519 q 394 638 490 638 q 240 566 298 638 q 185 418 195 510 l 185 418 l 589 418 z "},"f":{"ha":386,"x_min":20,"x_max":363,"o":"m 242 625 l 242 625 l 242 0 l 242 0 l 181 0 l 120 0 l 120 0 l 120 625 l 120 625 l 20 625 l 20 726 l 120 726 l 120 726 l 120 849 q 168 970 120 930 q 310 1011 215 1011 l 363 1009 l 363 899 l 315 901 q 261 879 280 901 q 242 814 242 856 l 242 726 l 242 726 l 363 726 l 363 625 l 242 625 z "},"g":{"ha":772,"x_min":56,"x_max":693,"o":"m 356 -205 q 516 -139 461 -205 q 571 54 571 -73 l 571 77 l 570 77 q 374 -20 495 -20 q 142 89 228 -20 q 56 383 56 198 q 140 647 56 547 q 362 747 225 747 q 570 634 493 747 l 578 621 l 578 621 l 578 726 l 578 726 l 693 726 l 693 54 q 610 -218 692 -130 q 358 -307 528 -307 q 162 -250 235 -307 q 75 -84 90 -193 l 75 -84 l 199 -84 l 199 -84 q 251 -174 210 -142 q 356 -205 292 -205 m 380 636 q 230 571 277 636 q 183 364 183 506 q 234 158 183 231 q 380 86 286 86 q 523 153 469 86 q 577 328 577 219 q 528 559 577 482 q 380 636 479 636 z "},"h":{"ha":772,"x_min":90,"x_max":682,"o":"m 90 0 l 90 997 l 90 997 l 151 997 l 212 997 l 212 997 l 212 627 l 212 627 l 212 627 l 233 654 q 432 747 313 747 q 617 682 552 747 q 682 497 682 617 l 682 0 l 682 0 l 621 0 l 560 0 l 560 0 l 560 467 q 526 596 560 557 q 413 636 491 636 q 267 569 321 636 q 212 389 212 503 l 212 389 l 212 0 l 212 0 l 151 0 l 90 0 l 90 0 z "},"i":{"ha":309,"x_min":93,"x_max":218,"o":"m 94 0 l 94 726 l 94 726 l 155 726 l 216 726 l 216 726 l 216 0 l 216 0 l 155 0 l 94 0 l 94 0 m 93 997 l 218 997 l 218 859 l 93 859 l 93 997 z "},"j":{"ha":309,"x_min":-22,"x_max":216,"o":"m 92 726 l 92 726 l 153 726 l 214 726 l 214 726 l 214 -99 q 171 -245 214 -200 q 30 -290 127 -290 q -22 -286 2 -290 l -22 -180 l 2 -180 q 74 -163 55 -180 q 92 -99 92 -146 l 92 -99 l 92 726 m 91 997 l 216 997 l 216 859 l 91 859 l 91 997 z "},"k":{"ha":694,"x_min":93,"x_max":695,"o":"m 93 0 l 93 997 l 93 997 l 154 997 l 215 997 l 215 997 l 215 422 l 215 422 l 522 726 l 522 726 l 599 726 l 677 726 l 677 726 l 401 456 l 401 456 l 695 0 l 695 0 l 616 0 l 536 0 l 536 0 l 311 369 l 311 369 l 215 275 l 215 275 l 215 0 l 215 0 l 154 0 l 93 0 l 93 0 z "},"l":{"ha":309,"x_min":93,"x_max":215,"o":"m 93 0 l 93 997 l 93 997 l 154 997 l 215 997 l 215 997 l 215 0 l 215 0 l 154 0 l 93 0 l 93 0 z "},"m":{"ha":1157,"x_min":90,"x_max":1068,"o":"m 90 0 l 90 726 l 90 726 l 148 726 l 206 726 l 206 726 l 206 618 l 206 618 l 206 618 l 231 650 q 427 747 313 747 q 583 690 525 747 q 623 631 608 664 l 623 631 l 642 656 q 830 747 721 747 q 1006 685 944 747 q 1068 509 1068 623 l 1068 0 l 1068 0 l 1007 0 l 946 0 l 946 0 l 946 468 q 912 593 946 551 q 813 636 878 636 q 687 574 734 636 q 640 408 640 513 l 640 408 l 640 0 l 640 0 l 579 0 l 518 0 l 518 0 l 518 497 q 487 601 518 565 q 397 636 456 636 q 264 567 316 636 q 212 389 212 498 l 212 389 l 212 0 l 212 0 l 151 0 l 90 0 l 90 0 z "},"n":{"ha":772,"x_min":90,"x_max":682,"o":"m 90 0 l 90 726 l 90 726 l 148 726 l 206 726 l 206 726 l 206 618 l 206 618 l 206 618 l 233 654 q 432 747 313 747 q 617 682 552 747 q 682 497 682 617 l 682 0 l 682 0 l 621 0 l 560 0 l 560 0 l 560 456 q 523 594 560 551 q 404 636 486 636 q 264 569 315 636 q 212 389 212 503 l 212 389 l 212 0 l 212 0 l 151 0 l 90 0 l 90 0 z "},"o":{"ha":772,"x_min":49,"x_max":724,"o":"m 386 -20 q 142 86 235 -20 q 49 363 49 192 q 142 642 49 536 q 386 747 235 747 q 631 642 538 747 q 724 363 724 536 q 631 86 724 192 q 386 -20 538 -20 l 386 -20 m 386 85 q 539 161 482 85 q 596 363 596 236 q 539 567 596 491 q 386 642 482 642 q 233 567 290 642 q 176 363 176 491 q 233 161 176 236 q 386 85 290 85 l 386 85 z "},"p":{"ha":772,"x_min":81,"x_max":718,"o":"m 81 726 l 81 726 l 138 726 l 197 726 l 197 726 l 197 623 l 197 623 l 203 631 q 410 747 281 747 q 635 649 552 747 q 718 385 718 551 q 634 88 718 195 q 402 -20 551 -20 q 207 75 279 -20 l 203 80 l 203 80 l 203 -287 l 203 -287 l 142 -287 l 81 -287 l 81 -287 l 81 726 m 396 86 q 541 158 492 86 q 591 369 591 231 q 543 571 591 505 q 397 636 496 636 q 249 562 296 636 q 203 328 203 488 l 203 328 l 203 328 l 203 328 q 253 149 203 212 q 396 86 303 86 z "},"q":{"ha":772,"x_min":49,"x_max":686,"o":"m 363 -20 q 134 89 219 -20 q 49 382 49 197 q 131 647 49 546 q 347 747 214 747 q 556 634 479 747 q 572 608 565 622 l 572 608 l 572 726 l 572 726 l 686 726 l 686 726 l 686 -287 l 686 -287 l 625 -287 l 564 -287 l 564 -287 l 564 84 l 564 84 l 558 77 q 363 -20 484 -20 m 370 637 q 223 572 269 637 q 176 363 176 506 q 227 157 176 230 q 370 85 277 85 q 511 152 457 85 q 564 328 564 218 q 514 557 564 477 q 370 637 463 637 z "},"r":{"ha":463,"x_min":107,"x_max":461,"o":"m 107 0 l 107 726 l 107 726 l 165 726 l 223 726 l 223 726 l 223 602 l 223 602 l 223 602 q 256 654 239 631 q 427 747 326 747 q 461 741 444 747 l 461 616 l 436 617 q 283 558 337 617 q 229 389 229 498 l 229 389 l 229 0 l 229 0 l 168 0 l 107 0 l 107 0 z "},"s":{"ha":694,"x_min":45,"x_max":644,"o":"m 506 515 l 506 515 q 457 609 500 576 q 339 642 413 642 q 223 616 263 642 q 184 538 184 589 q 212 480 184 500 q 322 441 239 460 l 448 411 q 600 340 554 385 q 644 214 644 295 q 567 43 644 106 q 357 -20 489 -20 q 128 41 203 -20 q 45 232 53 102 l 45 232 l 162 232 l 162 232 q 217 120 171 155 q 357 85 262 85 q 481 117 439 85 q 524 208 524 148 q 496 265 524 245 q 384 304 468 285 l 258 334 q 112 403 155 359 q 68 525 68 446 q 141 687 68 627 q 339 747 214 747 q 541 686 466 747 q 621 515 616 624 l 621 515 l 506 515 z "},"t":{"ha":386,"x_min":20,"x_max":357,"o":"m 357 1 q 266 -9 294 -9 q 153 26 186 -9 q 120 148 120 62 l 120 626 l 120 626 l 20 626 l 20 726 l 120 726 l 120 726 l 120 929 l 242 929 l 242 726 l 242 726 l 357 726 l 357 626 l 242 626 l 242 626 l 242 148 q 261 109 242 123 q 313 95 281 95 l 357 95 l 357 1 z "},"u":{"ha":772,"x_min":94,"x_max":680,"o":"m 216 726 l 216 258 q 252 126 216 166 q 366 85 287 85 q 506 154 454 85 q 557 338 557 222 l 557 338 l 557 726 l 557 726 l 618 726 l 680 726 l 680 726 l 680 0 l 680 0 l 622 0 l 564 0 l 564 0 l 564 111 l 564 111 l 564 111 q 536 73 551 91 q 341 -20 458 -20 q 156 42 218 -20 q 94 227 94 104 l 94 726 l 94 726 l 155 726 l 216 726 l 216 726 z "},"v":{"ha":694,"x_min":11,"x_max":684,"o":"m 11 726 l 11 726 l 82 726 l 153 726 l 153 726 l 348 132 l 348 132 l 348 132 l 549 726 l 549 726 l 616 726 l 684 726 l 684 726 l 413 0 l 348 0 l 282 0 l 11 726 z "},"w":{"ha":1003,"x_min":20,"x_max":985,"o":"m 226 0 l 20 726 l 20 726 l 87 726 l 154 726 l 154 726 l 293 148 l 293 148 l 293 148 l 435 726 l 503 726 l 570 726 l 716 144 l 716 144 l 716 144 l 863 726 l 863 726 l 924 726 l 985 726 l 985 726 l 779 0 l 714 0 l 648 0 l 498 567 l 498 567 l 498 567 l 357 0 l 292 0 l 226 0 z "},"x":{"ha":694,"x_min":16,"x_max":681,"o":"m 16 0 l 273 374 l 273 374 l 29 726 l 29 726 l 108 726 l 186 726 l 186 726 l 353 467 l 353 467 l 353 467 l 522 726 l 522 726 l 597 726 l 673 726 l 673 726 l 429 372 l 429 372 l 681 0 l 681 0 l 605 0 l 528 0 l 528 0 l 347 277 l 347 277 l 347 277 l 170 0 l 170 0 l 93 0 l 16 0 l 16 0 z "},"y":{"ha":694,"x_min":16,"x_max":679,"o":"m 679 726 l 403 -24 q 289 -243 339 -191 q 140 -294 239 -294 q 81 -287 107 -295 l 81 -174 q 151 -184 109 -184 q 220 -151 192 -184 q 283 -24 248 -117 l 285 -12 l 285 -12 l 16 726 l 16 726 l 85 726 l 155 726 l 155 726 l 349 125 l 349 125 l 349 125 l 545 726 l 545 726 l 612 726 l 679 726 l 679 726 z "},"z":{"ha":694,"x_min":43,"x_max":652,"o":"m 43 96 l 478 624 l 478 624 l 75 624 l 75 624 l 75 675 l 75 726 l 75 726 l 642 726 l 642 678 l 642 630 l 206 102 l 206 102 l 652 102 l 652 102 l 652 51 l 652 0 l 652 0 l 43 0 l 43 47 l 43 96 z "},"{":{"ha":464,"x_min":58,"x_max":406,"o":"m 406 -275 q 236 -241 294 -284 q 178 -106 178 -197 l 178 54 q 148 255 178 186 q 58 323 117 323 l 58 405 q 148 473 117 405 q 178 674 178 542 l 178 834 q 236 969 178 926 q 406 1004 294 1013 l 406 909 q 310 898 334 915 q 286 824 286 881 l 286 684 q 237 420 286 490 q 163 365 212 382 l 163 365 q 237 309 212 345 q 286 44 286 238 l 286 -96 q 310 -170 286 -153 q 406 -181 334 -186 l 406 -275 z "},"|":{"ha":361,"x_min":131,"x_max":232,"o":"m 131 -347 l 131 1042 l 232 1042 l 232 -347 l 131 -347 z "},"}":{"ha":464,"x_min":58,"x_max":406,"o":"m 58 -275 l 58 -181 q 154 -170 130 -186 q 178 -96 178 -153 l 178 44 q 227 309 178 238 q 301 365 252 345 l 301 365 q 227 420 252 382 q 178 684 178 490 l 178 824 q 154 898 178 881 q 58 909 130 915 l 58 1004 q 228 969 170 1013 q 286 834 286 926 l 286 674 q 316 473 286 542 q 406 405 347 405 l 406 323 q 316 255 347 323 q 286 54 286 186 l 286 -106 q 227 -241 286 -197 q 58 -275 170 -284 z "},"~":{"ha":811,"x_min":85,"x_max":726,"o":"m 85 329 q 160 420 121 393 q 257 447 200 447 q 329 436 292 447 q 425 397 367 425 q 504 364 469 376 q 554 352 538 352 q 617 378 585 352 q 678 452 649 404 l 726 373 q 643 282 683 309 q 554 255 604 255 q 481 268 519 255 q 386 313 444 281 q 319 340 355 330 q 252 350 283 350 q 188 324 218 350 q 133 250 157 298 l 85 329 z "}," ":{"ha":386,"x_min":0,"x_max":0,"o":""},"¡":{"ha":463,"x_min":164,"x_max":301,"o":"m 268 490 l 300 38 l 300 -272 l 233 -272 l 165 -272 l 165 38 l 197 490 l 233 490 l 233 490 l 268 490 m 301 587 l 164 587 l 164 727 l 301 727 l 301 587 z "},"¢":{"ha":772,"x_min":71,"x_max":713,"o":"m 507 873 l 566 873 l 526 731 q 616 677 576 713 q 713 478 697 605 l 713 478 l 595 478 l 595 478 q 532 601 582 557 q 497 625 517 615 l 348 92 q 403 85 374 85 q 530 130 479 85 q 595 254 581 174 l 595 254 l 713 254 l 713 254 q 613 51 694 121 q 397 -20 532 -20 q 319 -12 356 -20 l 277 -161 l 218 -161 l 265 5 q 159 85 205 31 q 71 364 71 189 q 163 645 71 541 q 410 749 255 749 q 471 745 442 749 l 507 873 m 295 112 l 443 642 q 407 644 425 644 q 254 570 309 644 q 198 364 198 495 l 198 364 q 250 155 198 225 q 295 113 269 130 l 295 112 z "},"£":{"ha":772,"x_min":46,"x_max":755,"o":"m 755 43 q 672 -7 725 14 q 574 -27 619 -27 q 525 -20 553 -27 q 442 9 497 -12 q 361 34 394 27 q 286 40 328 40 q 201 24 248 40 q 123 -16 154 7 l 53 79 q 175 201 128 130 q 221 337 221 273 q 208 404 221 369 q 190 443 202 420 l 46 443 l 46 529 l 143 529 q 102 619 115 583 q 87 717 87 664 q 176 921 87 843 q 408 999 264 999 q 643 914 557 999 q 728 680 728 829 l 728 680 l 603 680 l 603 680 q 548 837 598 782 q 410 892 498 892 q 270 846 323 892 q 217 725 217 800 q 228 655 217 690 q 271 558 239 620 l 286 529 l 517 529 l 517 443 l 321 443 l 322 439 q 335 342 335 395 q 267 176 335 257 q 201 113 238 142 l 201 113 q 361 142 291 142 q 412 137 387 142 q 477 119 436 132 q 549 98 525 103 q 591 92 572 92 q 648 105 618 92 q 696 136 679 118 l 755 43 z "},"¤":{"ha":772,"x_min":39,"x_max":734,"o":"m 628 486 q 558 657 628 587 q 386 728 488 728 q 214 657 284 728 q 144 486 144 587 q 214 314 144 384 q 386 244 284 244 q 558 314 488 244 q 628 486 628 384 m 386 144 q 175 212 266 145 l 175 212 l 104 142 l 39 207 l 111 279 l 111 279 q 44 486 44 367 q 111 694 45 604 l 111 694 l 39 765 l 104 830 l 176 759 l 176 759 q 386 828 266 828 q 595 758 507 829 l 595 758 l 669 830 l 734 765 l 661 692 l 661 692 q 728 486 728 606 q 661 279 729 368 l 661 279 l 734 207 l 669 142 l 596 214 l 596 214 q 386 144 507 144 z "},"¥":{"ha":772,"x_min":4,"x_max":768,"o":"m 62 449 l 62 528 l 272 528 l 272 528 l 4 957 l 4 957 l 75 957 l 145 957 l 145 957 l 387 549 l 387 549 l 628 957 l 628 957 l 698 957 l 768 957 l 768 957 l 501 528 l 501 528 l 711 528 l 711 449 l 452 449 l 452 449 l 450 445 l 450 445 l 450 328 l 450 328 l 711 328 l 711 250 l 450 250 l 450 250 l 450 0 l 450 0 l 387 0 l 324 0 l 324 0 l 324 250 l 324 250 l 62 250 l 62 328 l 324 328 l 324 328 l 324 445 l 324 445 l 321 449 l 321 449 l 62 449 z "},"¦":{"ha":361,"x_min":131,"x_max":232,"o":"m 131 -232 l 131 231 l 232 231 l 232 -232 l 131 -232 m 131 463 l 131 926 l 232 926 l 232 463 l 131 463 z "},"§":{"ha":772,"x_min":60,"x_max":711,"o":"m 389 1024 q 571 957 505 1024 q 640 772 638 890 l 640 772 l 522 772 l 522 772 q 483 881 517 842 q 389 920 448 920 q 291 886 328 920 q 254 800 254 853 q 302 719 254 762 q 452 625 351 675 q 653 491 594 552 q 711 353 711 429 q 621 160 711 234 q 564 123 595 139 l 576 111 q 640 -26 640 41 q 568 -195 640 -131 q 379 -260 496 -260 q 190 -192 259 -260 q 118 -5 120 -125 l 118 -5 l 236 -5 l 236 -5 q 278 -116 241 -77 q 379 -155 315 -155 q 484 -122 444 -155 q 524 -35 524 -89 q 474 46 524 -1 q 319 154 423 93 q 107 301 154 252 q 60 425 60 350 q 150 608 60 538 q 208 643 176 629 l 201 651 q 138 791 138 718 q 207 960 138 895 q 389 1024 276 1024 m 595 327 q 551 418 595 375 q 397 516 506 460 q 275 589 326 552 q 233 565 253 579 q 176 452 176 522 q 210 371 176 404 q 380 258 243 339 q 500 179 450 218 q 538 203 520 190 q 595 327 595 250 z "},"¨":{"ha":463,"x_min":56,"x_max":407,"o":"m 56 981 l 182 981 l 182 839 l 56 839 l 56 981 m 281 981 l 407 981 l 407 839 l 281 839 l 281 981 z "},"©":{"ha":1023,"x_min":-19,"x_max":1044,"o":"m 512 1019 q 889 868 735 1019 q 1044 498 1044 718 q 890 129 1044 280 q 512 -22 736 -22 q 135 129 289 -22 q -19 498 -19 280 q 135 868 -19 718 q 512 1019 290 1019 l 512 1019 m 937 498 q 814 806 937 680 q 512 931 691 931 q 211 806 334 931 q 87 498 87 680 q 211 192 87 317 q 512 66 334 66 q 814 192 690 66 q 937 498 937 317 l 937 498 m 793 401 l 793 401 q 697 238 770 297 q 517 180 623 180 q 311 269 392 180 q 231 498 231 359 q 311 731 231 645 q 528 818 392 818 q 705 761 635 818 q 793 603 776 703 l 793 603 l 701 603 l 701 603 q 642 695 688 663 q 526 728 596 728 q 387 666 438 728 q 335 498 335 604 q 388 334 335 398 q 522 269 440 269 q 637 303 591 269 q 701 401 684 338 l 701 401 l 793 401 z "},"ª":{"ha":514,"x_min":33,"x_max":481,"o":"m 186 564 q 74 597 115 564 q 33 691 33 631 q 75 787 33 749 q 191 831 117 824 l 260 838 l 311 844 q 336 858 327 846 q 345 889 345 869 l 345 890 q 318 935 345 919 q 242 951 290 951 q 165 933 193 951 q 133 878 138 914 l 133 878 l 57 878 l 57 878 q 111 987 62 951 q 249 1024 159 1024 q 384 990 338 1024 q 430 890 430 956 l 430 661 q 436 635 430 644 q 458 628 443 627 q 481 632 465 630 l 481 571 q 458 566 471 568 q 435 564 446 564 q 368 587 387 564 q 352 631 358 602 l 352 631 l 334 614 q 186 564 273 564 m 345 760 l 345 787 l 345 787 q 268 770 312 777 l 211 764 q 142 742 163 758 q 121 699 121 727 q 142 651 121 667 q 203 635 163 635 q 304 664 263 635 q 334 696 324 679 q 342 722 339 704 q 345 760 345 739 m 49 490 l 465 490 l 465 424 l 49 424 l 49 490 z "},"«":{"ha":772,"x_min":135,"x_max":637,"o":"m 353 497 l 207 384 l 207 384 l 353 271 l 353 150 l 135 319 l 135 384 l 135 449 l 353 618 l 353 497 m 637 497 l 491 384 l 491 384 l 637 271 l 637 150 l 419 319 l 419 384 l 419 449 l 637 618 l 637 497 z "},"¬":{"ha":811,"x_min":54,"x_max":757,"o":"m 654 439 l 54 439 l 54 542 l 757 542 l 757 150 l 654 150 l 654 439 z "},"­":{"ha":463,"x_min":61,"x_max":401,"o":"m 61 447 l 401 447 l 401 321 l 61 321 l 61 447 z "},"®":{"ha":1023,"x_min":-19,"x_max":1044,"o":"m 512 1019 q 889 868 735 1019 q 1044 498 1044 718 q 890 129 1044 280 q 512 -22 736 -22 q 135 129 289 -22 q -19 498 -19 280 q 135 868 -19 718 q 512 1019 290 1019 l 512 1019 m 937 498 q 814 806 937 680 q 512 931 691 931 q 211 806 334 931 q 87 498 87 680 q 211 192 87 317 q 512 66 334 66 q 814 192 690 66 q 937 498 937 317 l 937 498 m 282 198 l 282 800 l 282 800 l 330 800 l 330 800 l 523 800 q 676 756 621 800 q 731 637 731 713 q 675 506 731 553 q 569 462 634 471 l 569 462 l 742 198 l 742 198 l 688 198 l 633 198 l 633 198 l 477 458 l 477 458 l 377 458 l 377 458 l 377 198 l 377 198 l 330 198 l 282 198 l 282 198 m 377 538 l 377 538 l 505 538 q 603 562 572 538 q 633 636 633 585 q 603 702 633 681 q 505 723 572 723 l 377 723 l 377 723 l 377 538 z "},"¯":{"ha":463,"x_min":14,"x_max":449,"o":"m 14 870 l 14 950 l 449 950 l 449 870 l 14 870 z "},"°":{"ha":555,"x_min":75,"x_max":480,"o":"m 277 975 q 421 916 363 975 q 480 772 480 857 q 421 628 480 687 q 277 570 363 570 q 134 628 193 570 q 75 772 75 687 q 134 916 75 857 q 277 975 193 975 m 416 772 q 376 870 416 830 q 277 911 336 911 q 179 870 219 911 q 139 772 139 830 q 179 673 139 713 q 277 633 219 633 q 376 673 336 633 q 416 772 416 713 z "},"±":{"ha":811,"x_min":54,"x_max":757,"o":"m 355 378 l 54 378 l 54 480 l 355 480 l 355 703 l 456 703 l 456 480 l 757 480 l 757 378 l 456 378 l 456 155 l 355 155 l 355 378 m 54 100 l 757 100 l 757 -3 l 54 -3 l 54 100 z "},"²":{"ha":463,"x_min":5,"x_max":449,"o":"m 449 798 q 413 693 449 734 q 279 602 378 652 q 134 503 172 547 q 115 474 122 490 l 115 474 l 449 474 l 449 389 l 5 389 l 5 389 q 55 542 5 482 q 242 671 105 601 q 329 731 306 703 q 352 802 352 758 q 321 871 352 846 q 237 897 291 897 q 144 865 174 897 q 113 764 115 833 l 113 764 l 23 764 l 23 764 q 80 920 22 863 q 244 977 139 977 q 392 926 334 977 q 449 798 449 876 z "},"³":{"ha":463,"x_min":7,"x_max":452,"o":"m 333 812 q 306 874 333 853 q 227 896 279 896 q 141 868 171 896 q 109 784 112 840 l 109 784 l 24 784 l 24 784 q 80 926 24 876 q 239 977 136 977 q 378 935 326 977 q 430 821 430 892 q 372 711 430 755 l 351 696 l 351 696 q 395 674 376 688 q 452 558 452 635 q 392 425 452 474 q 229 375 332 375 q 66 422 121 375 q 7 568 12 470 l 7 568 l 102 568 l 102 568 q 138 481 108 507 q 232 456 168 456 q 323 482 291 456 q 355 556 355 508 q 324 632 355 606 q 232 658 292 658 l 180 658 l 180 730 l 218 730 q 302 752 271 730 q 333 812 333 774 z "},"´":{"ha":463,"x_min":170,"x_max":443,"o":"m 170 823 l 293 1019 l 443 1019 l 264 823 l 170 823 z "},"µ":{"ha":772,"x_min":94,"x_max":680,"o":"m 216 726 l 216 279 q 255 134 216 182 q 370 85 293 85 q 504 152 450 85 q 557 319 557 218 l 557 319 l 557 726 l 680 726 l 680 0 l 564 0 l 564 70 l 564 70 l 564 70 q 340 -20 485 -21 q 230 19 269 -20 l 216 35 l 216 35 l 216 -290 l 94 -290 l 94 218 l 94 726 l 216 726 z "},"¶":{"ha":746,"x_min":25,"x_max":690,"o":"m 324 477 l 324 477 q 108 549 191 477 q 25 736 25 620 q 107 925 25 854 q 324 997 190 997 l 690 997 l 690 997 l 690 -237 l 591 -237 l 591 912 l 591 912 l 422 912 l 422 912 l 422 -237 l 324 -237 l 324 477 z "},"·":{"ha":386,"x_min":107,"x_max":252,"o":"m 107 563 l 252 563 l 252 416 l 107 416 l 107 563 z "},"¸":{"ha":463,"x_min":62,"x_max":359,"o":"m 264 1 l 201 -85 l 201 -85 l 242 -81 q 328 -109 297 -81 q 359 -185 359 -136 q 314 -277 359 -242 q 196 -313 269 -313 q 135 -304 172 -313 q 62 -283 98 -296 l 85 -227 q 135 -241 110 -236 q 176 -247 160 -247 q 235 -233 216 -247 q 254 -189 254 -218 q 235 -150 254 -165 q 187 -134 216 -134 q 165 -137 180 -134 q 133 -146 150 -140 l 110 -120 l 199 1 l 264 1 z "},"¹":{"ha":463,"x_min":60,"x_max":309,"o":"m 212 389 l 212 801 l 212 801 l 60 800 l 60 865 q 168 888 125 861 q 235 977 210 916 l 309 977 l 309 977 l 309 389 l 309 389 l 261 389 l 212 389 l 212 389 z "},"º":{"ha":507,"x_min":35,"x_max":474,"o":"m 254 564 q 92 624 149 564 q 35 793 35 684 q 92 964 35 904 q 254 1025 149 1025 q 417 964 359 1025 q 474 793 474 904 q 417 624 474 684 q 254 564 359 564 l 254 564 m 254 635 q 348 676 315 635 q 381 793 381 718 q 348 912 381 870 q 254 954 315 954 q 161 912 194 954 q 127 793 127 870 q 161 676 127 718 q 254 635 194 635 l 254 635 m 50 491 l 458 491 l 458 424 l 50 424 l 50 491 z "},"»":{"ha":772,"x_min":135,"x_max":637,"o":"m 135 271 l 281 384 l 281 384 l 135 497 l 135 618 l 353 449 l 353 384 l 353 319 l 135 150 l 135 271 m 419 271 l 566 384 l 566 384 l 419 497 l 419 618 l 637 449 l 637 384 l 637 319 l 419 150 l 419 271 z "},"∕":{"ha":232,"x_min":-230,"x_max":462,"o":"m 462 977 l -150 -30 l -230 -30 l 382 977 l 462 977 z "},"¼":{"ha":1158,"x_min":102,"x_max":1050,"o":"m 922 977 l 310 -30 l 230 -30 l 842 977 l 922 977 m 254 389 l 254 801 l 254 801 l 102 800 l 102 865 q 210 888 167 861 q 277 977 252 916 l 351 977 l 351 977 l 351 389 l 351 389 l 303 389 l 254 389 l 254 389 m 873 136 l 622 136 l 622 178 l 622 221 l 891 568 l 928 568 l 964 568 l 964 211 l 964 211 l 1050 211 l 1050 136 l 964 136 l 964 136 l 964 0 l 873 0 l 873 136 l 873 136 m 873 211 l 873 211 l 873 429 l 873 429 l 873 429 l 712 221 l 704 211 l 704 211 l 873 211 z "},"½":{"ha":1158,"x_min":60,"x_max":1074,"o":"m 848 977 l 237 -30 l 157 -30 l 768 977 l 848 977 m 212 389 l 212 801 l 212 801 l 60 800 l 60 865 q 168 888 125 861 q 235 977 210 916 l 309 977 l 309 977 l 309 389 l 309 389 l 261 389 l 212 389 l 212 389 m 1074 409 q 1038 304 1074 346 q 903 213 1002 263 q 758 114 797 159 q 739 85 747 101 l 739 85 l 1074 85 l 1074 0 l 630 0 l 630 0 q 680 153 630 94 q 867 282 730 212 q 954 342 930 315 q 977 413 977 370 q 946 483 977 458 q 861 508 916 508 q 769 476 799 508 q 737 375 739 444 l 737 375 l 648 375 l 648 375 q 705 531 646 475 q 869 588 764 588 q 1017 538 959 588 q 1074 409 1074 488 z "},"¾":{"ha":1158,"x_min":62,"x_max":1125,"o":"m 977 977 l 365 -30 l 285 -30 l 897 977 l 977 977 m 389 812 q 361 874 389 853 q 283 896 334 896 q 197 868 227 896 q 165 784 168 840 l 165 784 l 80 784 l 80 784 q 136 926 80 876 q 294 977 192 977 q 434 935 382 977 q 486 821 486 892 q 427 711 486 755 l 406 696 l 406 696 q 451 674 432 688 q 507 558 507 635 q 447 425 507 474 q 285 375 387 375 q 122 422 176 375 q 62 568 67 470 l 62 568 l 158 568 l 158 568 q 193 481 163 507 q 288 456 223 456 q 379 482 347 456 q 411 556 411 508 q 379 632 411 606 q 288 658 348 658 l 235 658 l 235 730 l 274 730 q 357 752 326 730 q 389 812 389 774 m 948 136 l 697 136 l 697 178 l 697 221 l 966 568 l 1003 568 l 1040 568 l 1040 211 l 1040 211 l 1125 211 l 1125 136 l 1040 136 l 1040 136 l 1040 0 l 948 0 l 948 136 l 948 136 m 948 211 l 948 211 l 948 429 l 948 429 l 948 429 l 787 221 l 779 211 l 779 211 l 948 211 z "},"¿":{"ha":848,"x_min":126,"x_max":732,"o":"m 417 -173 q 562 -122 514 -173 q 618 43 609 -71 l 618 43 l 732 43 l 732 43 q 645 -196 727 -112 q 417 -280 563 -280 q 207 -206 287 -280 q 126 -12 126 -132 q 161 120 126 59 q 277 256 195 182 q 351 353 330 303 q 370 475 372 404 l 489 475 q 461 304 492 374 q 355 166 431 233 q 278 78 301 119 q 255 -12 255 37 q 299 -130 255 -85 q 417 -173 342 -173 m 497 593 l 361 593 l 361 734 l 497 734 l 497 593 z "},"À":{"ha":926,"x_min":20,"x_max":908,"o":"m 20 0 l 396 997 l 473 997 l 550 997 l 908 0 l 908 0 l 836 0 l 763 0 l 763 0 l 662 289 l 662 289 l 263 289 l 263 289 l 159 0 l 159 0 l 90 0 l 20 0 l 20 0 m 467 850 l 307 408 l 307 408 l 621 408 l 621 408 l 467 850 l 467 850 l 467 850 m 444 1095 l 262 1290 l 413 1290 l 535 1095 l 444 1095 z "},"Á":{"ha":926,"x_min":20,"x_max":908,"o":"m 20 0 l 396 997 l 473 997 l 550 997 l 908 0 l 908 0 l 836 0 l 763 0 l 763 0 l 662 289 l 662 289 l 263 289 l 263 289 l 159 0 l 159 0 l 90 0 l 20 0 l 20 0 m 467 850 l 307 408 l 307 408 l 621 408 l 621 408 l 467 850 l 467 850 l 467 850 m 407 1095 l 530 1290 l 680 1290 l 501 1095 l 407 1095 z "},"Â":{"ha":926,"x_min":20,"x_max":908,"o":"m 20 0 l 396 997 l 473 997 l 550 997 l 908 0 l 908 0 l 836 0 l 763 0 l 763 0 l 662 289 l 662 289 l 263 289 l 263 289 l 159 0 l 159 0 l 90 0 l 20 0 l 20 0 m 467 850 l 307 408 l 307 408 l 621 408 l 621 408 l 467 850 l 467 850 l 467 850 m 537 1290 l 675 1095 l 564 1095 l 473 1225 l 473 1225 l 381 1095 l 271 1095 l 408 1290 l 473 1290 l 537 1290 z "},"Ã":{"ha":926,"x_min":20,"x_max":908,"o":"m 20 0 l 396 997 l 473 997 l 550 997 l 908 0 l 908 0 l 836 0 l 763 0 l 763 0 l 662 289 l 662 289 l 263 289 l 263 289 l 159 0 l 159 0 l 90 0 l 20 0 l 20 0 m 467 850 l 307 408 l 307 408 l 621 408 l 621 408 l 467 850 l 467 850 l 467 850 m 241 1110 q 289 1226 256 1192 q 382 1261 321 1261 q 437 1252 403 1261 q 496 1231 471 1243 q 540 1216 515 1222 q 583 1210 566 1210 q 623 1226 607 1210 q 646 1272 639 1242 l 713 1272 q 663 1156 696 1190 q 571 1121 631 1121 q 522 1130 555 1121 q 458 1151 488 1139 q 410 1166 435 1160 q 370 1172 385 1172 q 330 1156 347 1172 q 308 1110 314 1140 l 241 1110 z "},"Ä":{"ha":926,"x_min":20,"x_max":908,"o":"m 20 0 l 396 997 l 473 997 l 550 997 l 908 0 l 908 0 l 836 0 l 763 0 l 763 0 l 662 289 l 662 289 l 263 289 l 263 289 l 159 0 l 159 0 l 90 0 l 20 0 l 20 0 m 467 850 l 307 408 l 307 408 l 621 408 l 621 408 l 467 850 l 467 850 l 467 850 m 297 1253 l 423 1253 l 423 1110 l 297 1110 l 297 1253 m 522 1253 l 648 1253 l 648 1110 l 522 1110 l 522 1253 z "},"Å":{"ha":926,"x_min":20,"x_max":908,"o":"m 20 0 l 396 997 l 473 997 l 550 997 l 908 0 l 908 0 l 836 0 l 763 0 l 763 0 l 662 289 l 662 289 l 263 289 l 263 289 l 159 0 l 159 0 l 90 0 l 20 0 l 20 0 m 467 850 l 307 408 l 307 408 l 621 408 l 621 408 l 467 850 l 467 850 l 467 850 m 465 1036 q 375 1073 412 1036 q 338 1164 338 1110 q 375 1254 338 1217 q 465 1291 412 1291 q 556 1254 519 1291 q 593 1164 593 1217 q 556 1073 593 1110 q 465 1036 519 1036 l 465 1036 m 465 1091 q 517 1112 496 1091 q 538 1164 538 1133 q 517 1215 538 1194 q 465 1236 496 1236 q 414 1215 435 1236 q 393 1164 393 1194 q 414 1112 393 1133 q 465 1091 435 1091 l 465 1091 z "},"Æ":{"ha":1389,"x_min":11,"x_max":1321,"o":"m 637 0 l 637 0 l 637 289 l 637 289 l 267 289 l 267 289 l 154 0 l 154 0 l 83 0 l 11 0 l 11 0 l 417 997 l 417 997 l 765 997 l 765 997 l 1307 997 l 1307 997 l 1307 937 l 1307 878 l 1307 878 l 765 878 l 765 878 l 765 573 l 765 573 l 1259 573 l 1259 513 l 1259 454 l 1259 454 l 765 454 l 765 454 l 765 119 l 765 119 l 1321 119 l 1321 119 l 1321 60 l 1321 0 l 1321 0 l 765 0 l 765 0 l 637 0 m 500 878 l 315 408 l 315 408 l 637 408 l 637 408 l 637 878 l 500 878 l 500 878 z "},"Ç":{"ha":1003,"x_min":61,"x_max":946,"o":"m 946 367 l 946 367 q 805 78 920 182 q 512 -27 689 -27 q 183 115 306 -27 q 61 498 61 257 q 188 881 61 739 q 530 1024 315 1024 q 807 937 699 1024 q 937 698 916 850 l 937 698 l 807 698 l 807 698 q 715 851 788 797 q 528 905 642 905 q 289 794 378 905 q 200 498 200 684 q 282 196 200 300 q 522 92 365 92 q 714 164 637 92 q 816 367 791 235 l 816 367 l 946 367 m 533 1 l 470 -85 l 470 -85 l 511 -81 q 597 -109 566 -81 q 628 -185 628 -136 q 583 -277 628 -242 q 465 -313 538 -313 q 403 -304 440 -313 q 331 -283 366 -296 l 354 -227 q 404 -241 378 -236 q 445 -247 429 -247 q 504 -233 485 -247 q 523 -189 523 -218 q 504 -150 523 -165 q 456 -134 485 -134 q 433 -137 448 -134 q 401 -146 418 -140 l 378 -120 l 467 1 l 533 1 z "},"È":{"ha":926,"x_min":119,"x_max":856,"o":"m 119 0 l 119 0 l 119 997 l 119 997 l 848 997 l 848 997 l 848 937 l 848 878 l 848 878 l 254 878 l 254 878 l 254 573 l 254 573 l 797 573 l 797 513 l 797 454 l 797 454 l 254 454 l 254 454 l 254 119 l 254 119 l 856 119 l 856 119 l 856 60 l 856 0 l 856 0 l 119 0 m 470 1095 l 288 1290 l 439 1290 l 562 1095 l 470 1095 z "},"É":{"ha":926,"x_min":119,"x_max":856,"o":"m 119 0 l 119 0 l 119 997 l 119 997 l 848 997 l 848 997 l 848 937 l 848 878 l 848 878 l 254 878 l 254 878 l 254 573 l 254 573 l 797 573 l 797 513 l 797 454 l 797 454 l 254 454 l 254 454 l 254 119 l 254 119 l 856 119 l 856 119 l 856 60 l 856 0 l 856 0 l 119 0 m 433 1095 l 557 1290 l 707 1290 l 528 1095 l 433 1095 z "},"Ê":{"ha":926,"x_min":119,"x_max":856,"o":"m 119 0 l 119 0 l 119 997 l 119 997 l 848 997 l 848 997 l 848 937 l 848 878 l 848 878 l 254 878 l 254 878 l 254 573 l 254 573 l 797 573 l 797 513 l 797 454 l 797 454 l 254 454 l 254 454 l 254 119 l 254 119 l 856 119 l 856 119 l 856 60 l 856 0 l 856 0 l 119 0 m 564 1290 l 701 1095 l 591 1095 l 499 1225 l 499 1225 l 408 1095 l 297 1095 l 435 1290 l 499 1290 l 564 1290 z "},"Ë":{"ha":926,"x_min":119,"x_max":856,"o":"m 119 0 l 119 0 l 119 997 l 119 997 l 848 997 l 848 997 l 848 937 l 848 878 l 848 878 l 254 878 l 254 878 l 254 573 l 254 573 l 797 573 l 797 513 l 797 454 l 797 454 l 254 454 l 254 454 l 254 119 l 254 119 l 856 119 l 856 119 l 856 60 l 856 0 l 856 0 l 119 0 m 323 1253 l 450 1253 l 450 1110 l 323 1110 l 323 1253 m 549 1253 l 675 1253 l 675 1110 l 549 1110 l 549 1253 z "},"Ì":{"ha":386,"x_min":-18,"x_max":261,"o":"m 126 0 l 126 997 l 126 997 l 193 997 l 261 997 l 261 997 l 261 0 l 261 0 l 194 0 l 126 0 l 126 0 m 164 1095 l -18 1290 l 134 1290 l 256 1095 l 164 1095 z "},"Í":{"ha":386,"x_min":126,"x_max":401,"o":"m 126 0 l 126 997 l 126 997 l 193 997 l 261 997 l 261 997 l 261 0 l 261 0 l 194 0 l 126 0 l 126 0 m 127 1095 l 251 1290 l 401 1290 l 222 1095 l 127 1095 z "},"Î":{"ha":386,"x_min":-7,"x_max":397,"o":"m 127 0 l 127 997 l 127 997 l 195 997 l 262 997 l 262 997 l 262 0 l 262 0 l 195 0 l 127 0 l 127 0 m 259 1290 l 397 1095 l 286 1095 l 195 1225 l 195 1225 l 103 1095 l -7 1095 l 130 1290 l 195 1290 l 259 1290 z "},"Ï":{"ha":386,"x_min":18,"x_max":370,"o":"m 127 0 l 127 997 l 127 997 l 194 997 l 262 997 l 262 997 l 262 0 l 262 0 l 195 0 l 127 0 l 127 0 m 18 1253 l 144 1253 l 144 1110 l 18 1110 l 18 1253 m 243 1253 l 370 1253 l 370 1110 l 243 1110 l 243 1253 z "},"Ð":{"ha":1003,"x_min":0,"x_max":937,"o":"m 107 0 l 107 0 l 107 452 l 107 452 l 0 452 l 0 545 l 107 545 l 107 545 l 107 997 l 107 997 l 174 997 l 174 997 l 519 997 q 824 862 711 997 q 937 498 937 726 q 821 135 937 270 q 509 0 705 0 l 174 0 l 174 0 l 107 0 m 242 882 l 242 882 l 242 545 l 242 545 l 514 545 l 514 452 l 242 452 l 242 452 l 242 115 l 242 115 l 492 115 q 718 215 638 115 q 798 498 798 315 q 721 782 798 682 q 503 882 644 882 l 242 882 z "},"Ñ":{"ha":1003,"x_min":106,"x_max":897,"o":"m 236 0 l 236 0 l 171 0 l 106 0 l 106 0 l 106 997 l 106 997 l 186 997 l 268 997 l 268 997 l 767 186 l 767 186 l 767 186 l 767 997 l 767 997 l 832 997 l 897 997 l 897 997 l 897 0 l 823 0 l 749 0 l 236 813 l 236 813 l 236 813 l 236 0 m 269 1110 q 317 1226 285 1192 q 411 1261 350 1261 q 465 1252 431 1261 q 524 1231 499 1243 q 569 1216 543 1222 q 612 1210 594 1210 q 651 1226 635 1210 q 674 1272 667 1242 l 741 1272 q 692 1156 724 1190 q 600 1121 659 1121 q 550 1130 584 1121 q 486 1151 516 1139 q 438 1166 464 1160 q 399 1172 413 1172 q 359 1156 375 1172 q 336 1110 342 1140 l 269 1110 z "},"Ò":{"ha":1080,"x_min":54,"x_max":1026,"o":"m 540 -27 q 189 118 323 -27 q 54 498 54 262 q 189 879 54 734 q 540 1024 323 1024 q 892 879 758 1024 q 1026 498 1026 734 q 892 118 1026 262 q 540 -27 758 -27 l 540 -27 m 540 92 q 791 204 696 92 q 887 498 887 316 q 791 792 887 680 q 540 905 696 905 q 289 792 385 905 q 193 498 193 680 q 289 204 193 316 q 540 92 385 92 l 540 92 m 511 1095 l 329 1290 l 480 1290 l 602 1095 l 511 1095 z "},"Ó":{"ha":1080,"x_min":54,"x_max":1026,"o":"m 540 -27 q 189 118 323 -27 q 54 498 54 262 q 189 879 54 734 q 540 1024 323 1024 q 892 879 758 1024 q 1026 498 1026 734 q 892 118 1026 262 q 540 -27 758 -27 l 540 -27 m 540 92 q 791 204 696 92 q 887 498 887 316 q 791 792 887 680 q 540 905 696 905 q 289 792 385 905 q 193 498 193 680 q 289 204 193 316 q 540 92 385 92 l 540 92 m 474 1095 l 597 1290 l 747 1290 l 568 1095 l 474 1095 z "},"Ô":{"ha":1080,"x_min":54,"x_max":1026,"o":"m 540 -27 q 189 118 323 -27 q 54 498 54 262 q 189 879 54 734 q 540 1024 323 1024 q 892 879 758 1024 q 1026 498 1026 734 q 892 118 1026 262 q 540 -27 758 -27 l 540 -27 m 540 92 q 791 204 696 92 q 887 498 887 316 q 791 792 887 680 q 540 905 696 905 q 289 792 385 905 q 193 498 193 680 q 289 204 193 316 q 540 92 385 92 l 540 92 m 604 1290 l 742 1095 l 631 1095 l 540 1225 l 540 1225 l 448 1095 l 338 1095 l 475 1290 l 540 1290 l 604 1290 z "},"Õ":{"ha":1080,"x_min":54,"x_max":1026,"o":"m 540 -27 q 189 118 323 -27 q 54 498 54 262 q 189 879 54 734 q 540 1024 323 1024 q 892 879 758 1024 q 1026 498 1026 734 q 892 118 1026 262 q 540 -27 758 -27 l 540 -27 m 540 92 q 791 204 696 92 q 887 498 887 316 q 791 792 887 680 q 540 905 696 905 q 289 792 385 905 q 193 498 193 680 q 289 204 193 316 q 540 92 385 92 l 540 92 m 308 1110 q 356 1226 323 1192 q 450 1261 389 1261 q 504 1252 470 1261 q 563 1231 538 1243 q 607 1216 582 1222 q 650 1210 633 1210 q 690 1226 674 1210 q 713 1272 706 1242 l 780 1272 q 730 1156 763 1190 q 638 1121 698 1121 q 589 1130 623 1121 q 525 1151 555 1139 q 477 1166 503 1160 q 437 1172 452 1172 q 397 1156 414 1172 q 375 1110 381 1140 l 308 1110 z "},"Ö":{"ha":1080,"x_min":54,"x_max":1026,"o":"m 540 -27 q 189 118 323 -27 q 54 498 54 262 q 189 879 54 734 q 540 1024 323 1024 q 892 879 758 1024 q 1026 498 1026 734 q 892 118 1026 262 q 540 -27 758 -27 l 540 -27 m 540 92 q 791 204 696 92 q 887 498 887 316 q 791 792 887 680 q 540 905 696 905 q 289 792 385 905 q 193 498 193 680 q 289 204 193 316 q 540 92 385 92 l 540 92 m 364 1253 l 490 1253 l 490 1110 l 364 1110 l 364 1253 m 589 1253 l 715 1253 l 715 1110 l 589 1110 l 589 1253 z "},"×":{"ha":811,"x_min":54,"x_max":754,"o":"m 404 277 l 126 -1 l 54 71 l 332 349 l 54 627 l 126 699 l 404 421 l 682 699 l 754 627 l 476 349 l 754 71 l 682 -1 l 404 277 z "},"Ø":{"ha":1080,"x_min":54,"x_max":1027,"o":"m 541 455 l 300 192 q 541 92 394 92 l 541 92 q 792 204 696 92 q 888 498 888 316 q 818 759 888 654 l 541 455 m 541 -27 q 212 95 341 -27 l 98 -30 l 54 9 l 171 138 q 55 498 56 278 q 189 879 55 734 q 541 1024 323 1024 q 869 903 741 1024 l 983 1027 l 1027 987 l 910 860 q 1027 498 1027 719 q 893 118 1027 262 q 541 -27 759 -27 l 541 -27 m 541 905 q 290 792 385 905 q 194 498 194 680 q 263 238 195 342 l 541 542 l 781 806 q 541 905 688 905 z "},"Ù":{"ha":1003,"x_min":110,"x_max":895,"o":"m 895 366 q 791 77 895 181 q 503 -27 687 -27 q 210 73 311 -27 q 110 366 110 173 l 110 997 l 110 997 l 177 997 l 245 997 l 245 997 l 245 376 q 311 164 245 237 q 503 92 376 92 q 694 164 629 92 q 760 376 760 237 l 760 997 l 760 997 l 827 997 l 895 997 l 895 997 l 895 366 m 473 1095 l 291 1290 l 442 1290 l 564 1095 l 473 1095 z "},"Ú":{"ha":1003,"x_min":110,"x_max":895,"o":"m 895 366 q 791 77 895 181 q 503 -27 687 -27 q 210 73 311 -27 q 110 366 110 173 l 110 997 l 110 997 l 177 997 l 245 997 l 245 997 l 245 376 q 311 164 245 237 q 503 92 376 92 q 694 164 629 92 q 760 376 760 237 l 760 997 l 760 997 l 827 997 l 895 997 l 895 997 l 895 366 m 436 1095 l 559 1290 l 709 1290 l 530 1095 l 436 1095 z "},"Û":{"ha":1003,"x_min":110,"x_max":895,"o":"m 895 366 q 791 77 895 181 q 503 -27 687 -27 q 210 73 311 -27 q 110 366 110 173 l 110 997 l 110 997 l 177 997 l 245 997 l 245 997 l 245 376 q 311 164 245 237 q 503 92 376 92 q 694 164 629 92 q 760 376 760 237 l 760 997 l 760 997 l 827 997 l 895 997 l 895 997 l 895 366 m 566 1290 l 704 1095 l 593 1095 l 502 1225 l 502 1225 l 410 1095 l 300 1095 l 437 1290 l 502 1290 l 566 1290 z "},"Ü":{"ha":1003,"x_min":110,"x_max":895,"o":"m 895 366 q 791 77 895 181 q 503 -27 687 -27 q 210 73 311 -27 q 110 366 110 173 l 110 997 l 110 997 l 177 997 l 245 997 l 245 997 l 245 376 q 311 164 245 237 q 503 92 376 92 q 694 164 629 92 q 760 376 760 237 l 760 997 l 760 997 l 827 997 l 895 997 l 895 997 l 895 366 m 326 1253 l 452 1253 l 452 1110 l 326 1110 l 326 1253 m 551 1253 l 677 1253 l 677 1110 l 551 1110 l 551 1253 z "},"Ý":{"ha":926,"x_min":20,"x_max":907,"o":"m 396 399 l 396 399 l 20 997 l 20 997 l 98 997 l 178 997 l 178 997 l 464 513 l 464 513 l 751 997 l 751 997 l 829 997 l 907 997 l 907 997 l 531 397 l 531 397 l 531 0 l 464 0 l 396 0 l 396 399 m 397 1095 l 521 1290 l 671 1290 l 492 1095 l 397 1095 z "},"Þ":{"ha":926,"x_min":119,"x_max":864,"o":"m 119 0 l 119 997 l 119 997 l 186 997 l 254 997 l 254 997 l 254 831 l 254 831 l 560 832 q 780 752 696 832 q 864 543 864 672 q 780 334 864 414 q 560 254 696 254 l 254 255 l 254 255 l 254 0 l 254 0 l 187 0 l 119 0 l 119 0 m 725 543 q 672 671 725 626 q 522 717 619 717 l 254 717 l 254 717 l 254 370 l 254 370 l 522 370 q 672 415 619 370 q 725 543 725 460 z "},"ß":{"ha":848,"x_min":93,"x_max":793,"o":"m 215 694 l 215 0 l 215 0 l 154 0 l 93 0 l 93 0 l 93 694 l 93 729 q 176 939 93 867 q 417 1011 258 1011 q 654 942 564 1011 q 744 762 744 873 q 640 561 744 640 l 635 557 q 684 531 661 546 q 793 329 793 460 q 703 70 793 159 q 441 -20 613 -20 q 403 -17 422 -20 q 369 -11 384 -15 l 369 -11 l 369 94 l 369 94 q 405 88 388 90 q 434 85 422 85 q 606 139 547 85 q 665 296 665 193 q 598 451 665 404 q 483 490 558 479 q 425 493 456 494 q 376 488 394 493 l 376 597 q 423 593 393 593 q 478 597 453 593 q 562 628 529 606 q 622 750 622 668 q 565 863 622 820 q 416 905 508 905 q 265 852 315 905 q 215 694 215 800 z "},"à":{"ha":772,"x_min":50,"x_max":736,"o":"m 281 -20 q 113 37 175 -20 q 50 191 50 94 q 109 347 50 289 q 280 418 168 404 l 446 439 q 485 446 467 441 q 522 471 509 452 q 534 517 534 489 l 534 523 q 490 614 534 581 q 368 647 446 647 q 250 612 292 647 q 199 508 208 577 l 199 508 l 86 508 l 86 508 q 170 687 95 627 q 386 747 245 747 q 587 690 518 747 q 656 523 656 633 l 656 124 q 668 95 656 106 q 698 83 679 83 q 714 85 703 83 q 736 89 724 86 l 736 1 q 699 -10 719 -6 q 666 -14 680 -14 q 566 24 597 -14 q 536 95 545 49 l 536 95 q 505 62 523 78 q 281 -20 414 -20 m 534 288 l 534 366 l 534 366 q 459 344 500 350 l 347 328 q 218 287 259 315 q 178 208 178 258 q 211 114 178 147 q 305 81 244 81 q 468 134 401 81 q 528 216 513 170 q 532 244 531 225 q 534 288 534 264 m 342 823 l 161 1019 l 312 1019 l 434 823 l 342 823 z "},"á":{"ha":772,"x_min":50,"x_max":736,"o":"m 281 -20 q 113 37 175 -20 q 50 191 50 94 q 109 347 50 289 q 280 418 168 404 l 446 439 q 485 446 467 441 q 522 471 509 452 q 534 517 534 489 l 534 523 q 490 614 534 581 q 368 647 446 647 q 250 612 292 647 q 199 508 208 577 l 199 508 l 86 508 l 86 508 q 170 687 95 627 q 386 747 245 747 q 587 690 518 747 q 656 523 656 633 l 656 124 q 668 95 656 106 q 698 83 679 83 q 714 85 703 83 q 736 89 724 86 l 736 1 q 699 -10 719 -6 q 666 -14 680 -14 q 566 24 597 -14 q 536 95 545 49 l 536 95 q 505 62 523 78 q 281 -20 414 -20 m 534 288 l 534 366 l 534 366 q 459 344 500 350 l 347 328 q 218 287 259 315 q 178 208 178 258 q 211 114 178 147 q 305 81 244 81 q 468 134 401 81 q 528 216 513 170 q 532 244 531 225 q 534 288 534 264 m 312 823 l 435 1019 l 585 1019 l 406 823 l 312 823 z "},"â":{"ha":772,"x_min":50,"x_max":736,"o":"m 281 -20 q 113 37 175 -20 q 50 191 50 94 q 109 347 50 289 q 280 418 168 404 l 446 439 q 485 446 467 441 q 522 471 509 452 q 534 517 534 489 l 534 523 q 490 614 534 581 q 368 647 446 647 q 250 612 292 647 q 199 508 208 577 l 199 508 l 86 508 l 86 508 q 170 687 95 627 q 386 747 245 747 q 587 690 518 747 q 656 523 656 633 l 656 124 q 668 95 656 106 q 698 83 679 83 q 714 85 703 83 q 736 89 724 86 l 736 1 q 699 -10 719 -6 q 666 -14 680 -14 q 566 24 597 -14 q 536 95 545 49 l 536 95 q 505 62 523 78 q 281 -20 414 -20 m 534 288 l 534 366 l 534 366 q 459 344 500 350 l 347 328 q 218 287 259 315 q 178 208 178 258 q 211 114 178 147 q 305 81 244 81 q 468 134 401 81 q 528 216 513 170 q 532 244 531 225 q 534 288 534 264 m 436 1019 l 574 823 l 463 823 l 372 954 l 372 954 l 280 823 l 170 823 l 307 1019 l 372 1019 l 436 1019 z "},"ã":{"ha":772,"x_min":50,"x_max":736,"o":"m 281 -20 q 113 37 175 -20 q 50 191 50 94 q 109 347 50 289 q 280 418 168 404 l 446 439 q 485 446 467 441 q 522 471 509 452 q 534 517 534 489 l 534 523 q 490 614 534 581 q 368 647 446 647 q 250 612 292 647 q 199 508 208 577 l 199 508 l 86 508 l 86 508 q 170 687 95 627 q 386 747 245 747 q 587 690 518 747 q 656 523 656 633 l 656 124 q 668 95 656 106 q 698 83 679 83 q 714 85 703 83 q 736 89 724 86 l 736 1 q 699 -10 719 -6 q 666 -14 680 -14 q 566 24 597 -14 q 536 95 545 49 l 536 95 q 505 62 523 78 q 281 -20 414 -20 m 534 288 l 534 366 l 534 366 q 459 344 500 350 l 347 328 q 218 287 259 315 q 178 208 178 258 q 211 114 178 147 q 305 81 244 81 q 468 134 401 81 q 528 216 513 170 q 532 244 531 225 q 534 288 534 264 m 136 840 q 184 956 151 922 q 277 991 216 991 q 331 982 297 991 q 391 961 365 973 q 434 946 409 952 q 478 940 460 940 q 518 956 502 940 q 541 1002 534 972 l 608 1002 q 558 886 591 920 q 466 851 526 851 q 417 860 451 851 q 353 881 382 869 q 305 896 330 890 q 265 902 279 902 q 225 886 241 902 q 203 840 209 870 l 136 840 z "},"ä":{"ha":772,"x_min":50,"x_max":736,"o":"m 281 -20 q 113 37 175 -20 q 50 191 50 94 q 109 347 50 289 q 280 418 168 404 l 446 439 q 485 446 467 441 q 522 471 509 452 q 534 517 534 489 l 534 523 q 490 614 534 581 q 368 647 446 647 q 250 612 292 647 q 199 508 208 577 l 199 508 l 86 508 l 86 508 q 170 687 95 627 q 386 747 245 747 q 587 690 518 747 q 656 523 656 633 l 656 124 q 668 95 656 106 q 698 83 679 83 q 714 85 703 83 q 736 89 724 86 l 736 1 q 699 -10 719 -6 q 666 -14 680 -14 q 566 24 597 -14 q 536 95 545 49 l 536 95 q 505 62 523 78 q 281 -20 414 -20 m 534 288 l 534 366 l 534 366 q 459 344 500 350 l 347 328 q 218 287 259 315 q 178 208 178 258 q 211 114 178 147 q 305 81 244 81 q 468 134 401 81 q 528 216 513 170 q 532 244 531 225 q 534 288 534 264 m 196 981 l 322 981 l 322 839 l 196 839 l 196 981 m 421 981 l 547 981 l 547 839 l 421 839 l 421 981 z "},"å":{"ha":772,"x_min":50,"x_max":736,"o":"m 281 -20 q 113 37 175 -20 q 50 191 50 94 q 109 347 50 289 q 280 418 168 404 l 446 439 q 485 446 467 441 q 522 471 509 452 q 534 517 534 489 l 534 523 q 490 614 534 581 q 368 647 446 647 q 250 612 292 647 q 199 508 208 577 l 199 508 l 86 508 l 86 508 q 170 687 95 627 q 386 747 245 747 q 587 690 518 747 q 656 523 656 633 l 656 124 q 668 95 656 106 q 698 83 679 83 q 714 85 703 83 q 736 89 724 86 l 736 1 q 699 -10 719 -6 q 666 -14 680 -14 q 566 24 597 -14 q 536 95 545 49 l 536 95 q 505 62 523 78 q 281 -20 414 -20 m 534 288 l 534 366 l 534 366 q 459 344 500 350 l 347 328 q 218 287 259 315 q 178 208 178 258 q 211 114 178 147 q 305 81 244 81 q 468 134 401 81 q 528 216 513 170 q 532 244 531 225 q 534 288 534 264 m 389 795 q 299 832 336 795 q 262 922 262 869 q 299 1013 262 976 q 389 1050 336 1050 q 480 1013 443 1050 q 517 922 517 976 q 480 832 517 869 q 389 795 443 795 l 389 795 m 389 850 q 441 871 420 850 q 462 922 462 892 q 441 974 462 953 q 389 995 420 995 q 338 974 359 995 q 317 922 317 953 q 338 871 317 892 q 389 850 359 850 l 389 850 z "},"æ":{"ha":1235,"x_min":50,"x_max":1177,"o":"m 379 747 q 576 690 509 747 q 619 637 603 667 l 621 640 q 865 747 711 747 q 1091 642 1005 747 q 1177 363 1177 536 l 1175 320 l 1175 320 l 645 320 l 645 320 q 700 150 650 211 q 859 85 754 85 q 980 125 928 85 q 1043 225 1031 164 l 1043 225 l 1164 225 l 1164 225 q 1058 43 1137 106 q 852 -20 978 -20 q 615 78 701 -20 q 578 131 593 102 l 578 131 q 516 62 553 95 q 277 -20 418 -20 q 112 37 173 -20 q 50 191 50 94 q 107 348 50 290 q 275 420 165 406 l 435 440 q 491 452 465 445 q 523 474 512 457 q 534 515 534 490 l 534 523 q 490 614 534 581 q 367 647 446 647 q 249 612 292 647 q 198 508 207 577 l 198 508 l 85 508 l 85 508 q 168 687 94 627 q 379 747 242 747 m 534 283 l 534 372 l 534 372 q 448 345 496 352 l 342 330 q 217 288 257 317 q 178 208 178 259 q 211 114 178 147 q 307 81 245 81 q 468 134 402 81 q 529 220 515 172 q 533 246 532 229 q 534 283 534 264 m 1049 418 l 1049 418 q 999 576 1044 519 q 854 638 949 638 q 697 563 750 638 q 650 418 660 511 l 650 418 l 1049 418 z "},"ç":{"ha":694,"x_min":41,"x_max":663,"o":"m 663 261 l 663 261 q 566 52 644 124 q 358 -20 488 -20 q 127 84 214 -20 q 41 363 41 188 q 131 643 41 539 q 370 747 220 747 q 579 676 501 747 q 663 479 657 604 l 663 479 l 545 479 l 545 479 q 491 600 538 557 q 366 642 444 642 q 221 568 274 642 q 169 363 169 494 q 218 155 169 225 q 363 85 267 85 q 482 131 434 85 q 545 261 530 177 l 545 261 l 663 261 m 379 1 l 316 -85 l 316 -85 l 357 -81 q 443 -109 412 -81 q 474 -185 474 -136 q 429 -277 474 -242 q 311 -313 384 -313 q 249 -304 286 -313 q 177 -283 212 -296 l 200 -227 q 250 -241 224 -236 q 291 -247 275 -247 q 350 -233 331 -247 q 369 -189 369 -218 q 350 -150 369 -165 q 302 -134 331 -134 q 279 -137 294 -134 q 248 -146 264 -140 l 224 -120 l 313 1 l 379 1 z "},"è":{"ha":772,"x_min":56,"x_max":717,"o":"m 386 -20 q 144 78 232 -20 q 56 348 56 176 q 149 639 56 531 q 399 747 242 747 q 629 642 542 747 q 717 363 717 536 l 715 320 l 715 320 l 185 320 l 185 320 q 235 155 193 212 q 397 85 286 85 q 519 125 467 85 q 583 225 572 164 l 583 225 l 704 225 l 704 225 q 595 43 677 106 q 386 -20 514 -20 m 589 418 l 589 418 q 539 576 584 519 q 394 638 490 638 q 240 566 298 638 q 185 418 195 510 l 185 418 l 589 418 m 370 823 l 189 1019 l 340 1019 l 462 823 l 370 823 z "},"é":{"ha":772,"x_min":56,"x_max":717,"o":"m 386 -20 q 144 78 232 -20 q 56 348 56 176 q 149 639 56 531 q 399 747 242 747 q 629 642 542 747 q 717 363 717 536 l 715 320 l 715 320 l 185 320 l 185 320 q 235 155 193 212 q 397 85 286 85 q 519 125 467 85 q 583 225 572 164 l 583 225 l 704 225 l 704 225 q 595 43 677 106 q 386 -20 514 -20 m 589 418 l 589 418 q 539 576 584 519 q 394 638 490 638 q 240 566 298 638 q 185 418 195 510 l 185 418 l 589 418 m 340 823 l 463 1019 l 613 1019 l 434 823 l 340 823 z "},"ê":{"ha":772,"x_min":56,"x_max":717,"o":"m 386 -20 q 144 78 232 -20 q 56 348 56 176 q 149 639 56 531 q 399 747 242 747 q 629 642 542 747 q 717 363 717 536 l 715 320 l 715 320 l 185 320 l 185 320 q 235 155 193 212 q 397 85 286 85 q 519 125 467 85 q 583 225 572 164 l 583 225 l 704 225 l 704 225 q 595 43 677 106 q 386 -20 514 -20 m 589 418 l 589 418 q 539 576 584 519 q 394 638 490 638 q 240 566 298 638 q 185 418 195 510 l 185 418 l 589 418 m 464 1019 l 602 823 l 491 823 l 399 954 l 399 954 l 308 823 l 197 823 l 335 1019 l 399 1019 l 464 1019 z "},"ë":{"ha":772,"x_min":56,"x_max":717,"o":"m 386 -20 q 144 78 232 -20 q 56 348 56 176 q 149 639 56 531 q 399 747 242 747 q 629 642 542 747 q 717 363 717 536 l 715 320 l 715 320 l 185 320 l 185 320 q 235 155 193 212 q 397 85 286 85 q 519 125 467 85 q 583 225 572 164 l 583 225 l 704 225 l 704 225 q 595 43 677 106 q 386 -20 514 -20 m 589 418 l 589 418 q 539 576 584 519 q 394 638 490 638 q 240 566 298 638 q 185 418 195 510 l 185 418 l 589 418 m 224 981 l 350 981 l 350 839 l 224 839 l 224 981 m 449 981 l 575 981 l 575 839 l 449 839 l 449 981 z "},"ı":{"ha":386,"x_min":132,"x_max":254,"o":"m 132 0 l 132 726 l 132 726 l 193 726 l 254 726 l 254 726 l 254 0 l 254 0 l 193 0 l 132 0 l 132 0 z "},"ì":{"ha":386,"x_min":-18,"x_max":256,"o":"m 132 0 l 132 726 l 132 726 l 193 726 l 254 726 l 254 726 l 254 0 l 254 0 l 193 0 l 132 0 l 132 0 m 164 823 l -18 1019 l 134 1019 l 256 823 l 164 823 z "},"í":{"ha":386,"x_min":132,"x_max":407,"o":"m 132 0 l 132 726 l 132 726 l 193 726 l 254 726 l 254 726 l 254 0 l 254 0 l 193 0 l 132 0 l 132 0 m 134 823 l 257 1019 l 407 1019 l 228 823 l 134 823 z "},"î":{"ha":386,"x_min":-7,"x_max":397,"o":"m 134 0 l 134 726 l 134 726 l 195 726 l 256 726 l 256 726 l 256 0 l 256 0 l 195 0 l 134 0 l 134 0 m 259 1019 l 397 823 l 286 823 l 195 954 l 195 954 l 103 823 l -7 823 l 130 1019 l 195 1019 l 259 1019 z "},"ï":{"ha":386,"x_min":18,"x_max":370,"o":"m 133 0 l 133 726 l 133 726 l 194 726 l 255 726 l 255 726 l 255 0 l 255 0 l 194 0 l 133 0 l 133 0 m 18 981 l 144 981 l 144 839 l 18 839 l 18 981 m 243 981 l 370 981 l 370 839 l 243 839 l 243 981 z "},"ð":{"ha":772,"x_min":49,"x_max":725,"o":"m 387 -20 q 142 84 235 -20 q 49 355 49 187 q 137 626 49 523 q 366 730 224 730 q 566 630 481 730 l 566 630 q 512 728 543 682 q 402 850 469 791 l 228 766 l 171 821 l 337 900 q 219 974 284 938 l 319 1027 q 439 949 385 991 l 595 1023 l 657 971 l 502 897 q 620 759 570 833 q 725 411 725 599 q 637 92 725 204 q 387 -20 549 -20 m 176 355 q 233 158 176 231 q 387 85 290 85 q 540 158 483 85 q 597 355 597 231 q 540 551 597 478 q 387 625 483 625 q 233 551 290 625 q 176 355 176 478 z "},"ñ":{"ha":772,"x_min":90,"x_max":682,"o":"m 90 0 l 90 726 l 90 726 l 148 726 l 206 726 l 206 726 l 206 618 l 206 618 l 206 618 l 233 654 q 432 747 313 747 q 617 682 552 747 q 682 497 682 617 l 682 0 l 682 0 l 621 0 l 560 0 l 560 0 l 560 456 q 523 594 560 551 q 404 636 486 636 q 264 569 315 636 q 212 389 212 503 l 212 389 l 212 0 l 212 0 l 151 0 l 90 0 l 90 0 m 150 840 q 198 956 165 922 q 292 991 231 991 q 345 982 311 991 q 405 961 379 973 q 449 946 423 952 q 492 940 474 940 q 532 956 516 940 q 555 1002 548 972 l 622 1002 q 572 886 605 920 q 480 851 540 851 q 431 860 465 851 q 367 881 397 869 q 319 896 345 890 q 279 902 294 902 q 239 886 256 902 q 217 840 223 870 l 150 840 z "},"ò":{"ha":772,"x_min":49,"x_max":724,"o":"m 386 -20 q 142 86 235 -20 q 49 363 49 192 q 142 642 49 536 q 386 747 235 747 q 631 642 538 747 q 724 363 724 536 q 631 86 724 192 q 386 -20 538 -20 l 386 -20 m 386 85 q 539 161 482 85 q 596 363 596 236 q 539 567 596 491 q 386 642 482 642 q 233 567 290 642 q 176 363 176 491 q 233 161 176 236 q 386 85 290 85 l 386 85 m 357 823 l 175 1019 l 326 1019 l 448 823 l 357 823 z "},"ó":{"ha":772,"x_min":49,"x_max":724,"o":"m 386 -20 q 142 86 235 -20 q 49 363 49 192 q 142 642 49 536 q 386 747 235 747 q 631 642 538 747 q 724 363 724 536 q 631 86 724 192 q 386 -20 538 -20 l 386 -20 m 386 85 q 539 161 482 85 q 596 363 596 236 q 539 567 596 491 q 386 642 482 642 q 233 567 290 642 q 176 363 176 491 q 233 161 176 236 q 386 85 290 85 l 386 85 m 326 823 l 450 1019 l 600 1019 l 420 823 l 326 823 z "},"ô":{"ha":772,"x_min":49,"x_max":724,"o":"m 386 -20 q 142 86 235 -20 q 49 363 49 192 q 142 642 49 536 q 386 747 235 747 q 631 642 538 747 q 724 363 724 536 q 631 86 724 192 q 386 -20 538 -20 l 386 -20 m 386 85 q 539 161 482 85 q 596 363 596 236 q 539 567 596 491 q 386 642 482 642 q 233 567 290 642 q 176 363 176 491 q 233 161 176 236 q 386 85 290 85 l 386 85 m 450 1019 l 588 823 l 477 823 l 386 954 l 386 954 l 294 823 l 184 823 l 321 1019 l 386 1019 l 450 1019 z "},"õ":{"ha":772,"x_min":49,"x_max":724,"o":"m 386 -20 q 142 86 235 -20 q 49 363 49 192 q 142 642 49 536 q 386 747 235 747 q 631 642 538 747 q 724 363 724 536 q 631 86 724 192 q 386 -20 538 -20 l 386 -20 m 386 85 q 539 161 482 85 q 596 363 596 236 q 539 567 596 491 q 386 642 482 642 q 233 567 290 642 q 176 363 176 491 q 233 161 176 236 q 386 85 290 85 l 386 85 m 150 840 q 198 956 165 922 q 292 991 231 991 q 345 982 311 991 q 405 961 379 973 q 449 946 423 952 q 492 940 474 940 q 532 956 516 940 q 555 1002 548 972 l 622 1002 q 572 886 605 920 q 480 851 540 851 q 431 860 465 851 q 367 881 397 869 q 319 896 345 890 q 279 902 294 902 q 239 886 256 902 q 217 840 223 870 l 150 840 z "},"ö":{"ha":772,"x_min":49,"x_max":724,"o":"m 386 -20 q 142 86 235 -20 q 49 363 49 192 q 142 642 49 536 q 386 747 235 747 q 631 642 538 747 q 724 363 724 536 q 631 86 724 192 q 386 -20 538 -20 l 386 -20 m 386 85 q 539 161 482 85 q 596 363 596 236 q 539 567 596 491 q 386 642 482 642 q 233 567 290 642 q 176 363 176 491 q 233 161 176 236 q 386 85 290 85 l 386 85 m 210 981 l 336 981 l 336 839 l 210 839 l 210 981 m 435 981 l 562 981 l 562 839 l 435 839 l 435 981 z "},"÷":{"ha":811,"x_min":54,"x_max":757,"o":"m 406 161 q 472 133 445 161 q 500 66 500 106 q 472 -1 500 26 q 406 -28 445 -28 q 339 -1 366 -28 q 311 66 311 26 q 339 133 311 106 q 406 161 366 161 m 54 401 l 757 401 l 757 298 l 54 298 l 54 401 m 406 728 q 472 700 445 728 q 500 633 500 673 q 472 566 500 593 q 406 538 445 538 q 339 566 366 538 q 311 633 311 593 q 339 700 311 673 q 406 728 366 728 z "},"ø":{"ha":848,"x_min":39,"x_max":745,"o":"m 392 322 l 244 154 q 392 85 300 86 l 392 85 q 545 161 488 85 q 602 363 602 236 q 570 524 602 459 l 392 322 m 392 -20 q 167 66 256 -20 l 81 -31 l 39 3 l 130 106 q 55 363 56 210 q 148 642 55 536 q 392 747 241 747 q 618 661 528 748 l 703 757 l 745 722 l 654 619 q 730 363 730 518 q 637 86 730 192 q 392 -20 544 -20 l 392 -20 m 392 642 q 239 567 296 642 q 182 363 182 491 q 214 201 182 269 l 392 404 l 541 573 q 392 642 485 642 z "},"ù":{"ha":772,"x_min":94,"x_max":680,"o":"m 216 726 l 216 258 q 252 126 216 166 q 366 85 287 85 q 506 154 454 85 q 557 338 557 222 l 557 338 l 557 726 l 557 726 l 618 726 l 680 726 l 680 726 l 680 0 l 680 0 l 622 0 l 564 0 l 564 0 l 564 111 l 564 111 l 564 111 q 536 73 551 91 q 341 -20 458 -20 q 156 42 218 -20 q 94 227 94 104 l 94 726 l 94 726 l 155 726 l 216 726 l 216 726 m 357 823 l 176 1019 l 327 1019 l 449 823 l 357 823 z "},"ú":{"ha":772,"x_min":94,"x_max":680,"o":"m 216 726 l 216 258 q 252 126 216 166 q 366 85 287 85 q 506 154 454 85 q 557 338 557 222 l 557 338 l 557 726 l 557 726 l 618 726 l 680 726 l 680 726 l 680 0 l 680 0 l 622 0 l 564 0 l 564 0 l 564 111 l 564 111 l 564 111 q 536 73 551 91 q 341 -20 458 -20 q 156 42 218 -20 q 94 227 94 104 l 94 726 l 94 726 l 155 726 l 216 726 l 216 726 m 327 823 l 450 1019 l 600 1019 l 421 823 l 327 823 z "},"û":{"ha":772,"x_min":94,"x_max":680,"o":"m 216 726 l 216 258 q 252 126 216 166 q 366 85 287 85 q 506 154 454 85 q 557 338 557 222 l 557 338 l 557 726 l 557 726 l 618 726 l 680 726 l 680 726 l 680 0 l 680 0 l 622 0 l 564 0 l 564 0 l 564 111 l 564 111 l 564 111 q 536 73 551 91 q 341 -20 458 -20 q 156 42 218 -20 q 94 227 94 104 l 94 726 l 94 726 l 155 726 l 216 726 l 216 726 m 451 1019 l 589 823 l 478 823 l 387 954 l 387 954 l 295 823 l 184 823 l 322 1019 l 387 1019 l 451 1019 z "},"ü":{"ha":772,"x_min":94,"x_max":680,"o":"m 216 726 l 216 258 q 252 126 216 166 q 366 85 287 85 q 506 154 454 85 q 557 338 557 222 l 557 338 l 557 726 l 557 726 l 618 726 l 680 726 l 680 726 l 680 0 l 680 0 l 622 0 l 564 0 l 564 0 l 564 111 l 564 111 l 564 111 q 536 73 551 91 q 341 -20 458 -20 q 156 42 218 -20 q 94 227 94 104 l 94 726 l 94 726 l 155 726 l 216 726 l 216 726 m 211 981 l 337 981 l 337 839 l 211 839 l 211 981 m 436 981 l 562 981 l 562 839 l 436 839 l 436 981 z "},"ý":{"ha":694,"x_min":16,"x_max":679,"o":"m 679 726 l 403 -24 q 289 -243 339 -191 q 140 -294 239 -294 q 81 -287 107 -295 l 81 -174 q 151 -184 109 -184 q 220 -151 192 -184 q 283 -24 248 -117 l 285 -12 l 285 -12 l 16 726 l 16 726 l 85 726 l 155 726 l 155 726 l 349 125 l 349 125 l 349 125 l 545 726 l 545 726 l 612 726 l 679 726 l 679 726 m 288 823 l 411 1019 l 561 1019 l 382 823 l 288 823 z "},"þ":{"ha":772,"x_min":81,"x_max":718,"o":"m 81 997 l 81 997 l 142 997 l 203 997 l 203 997 l 203 633 l 203 633 q 410 747 282 747 q 635 649 552 747 q 718 385 718 551 q 634 88 718 195 q 402 -20 551 -20 q 207 75 279 -20 l 203 80 l 203 80 l 203 -287 l 203 -287 l 142 -287 l 81 -287 l 81 -287 l 81 997 m 396 86 q 541 158 492 86 q 591 369 591 231 q 543 571 591 505 q 397 636 496 636 q 249 562 296 636 q 203 328 203 488 l 203 328 l 203 328 l 203 328 q 253 149 203 212 q 396 86 303 86 z "},"ÿ":{"ha":694,"x_min":16,"x_max":679,"o":"m 679 726 l 403 -24 q 289 -243 339 -191 q 140 -294 239 -294 q 81 -287 107 -295 l 81 -174 q 151 -184 109 -184 q 220 -151 192 -184 q 283 -24 248 -117 l 285 -12 l 285 -12 l 16 726 l 16 726 l 85 726 l 155 726 l 155 726 l 349 125 l 349 125 l 349 125 l 545 726 l 545 726 l 612 726 l 679 726 l 679 726 m 172 981 l 298 981 l 298 839 l 172 839 l 172 981 m 397 981 l 523 981 l 523 839 l 397 839 l 397 981 z "},"Ā":{"ha":926,"x_min":20,"x_max":908,"o":"m 20 0 l 396 997 l 473 997 l 550 997 l 908 0 l 908 0 l 836 0 l 763 0 l 763 0 l 662 289 l 662 289 l 263 289 l 263 289 l 159 0 l 159 0 l 90 0 l 20 0 l 20 0 m 467 850 l 307 408 l 307 408 l 621 408 l 621 408 l 467 850 l 467 850 l 467 850 m 261 1179 l 684 1179 l 684 1095 l 261 1095 l 261 1179 z "},"ā":{"ha":772,"x_min":50,"x_max":736,"o":"m 281 -20 q 113 37 175 -20 q 50 191 50 94 q 109 347 50 289 q 280 418 168 404 l 446 439 q 485 446 467 441 q 522 471 509 452 q 534 517 534 489 l 534 523 q 490 614 534 581 q 368 647 446 647 q 250 612 292 647 q 199 508 208 577 l 199 508 l 86 508 l 86 508 q 170 687 95 627 q 386 747 245 747 q 587 690 518 747 q 656 523 656 633 l 656 124 q 668 95 656 106 q 698 83 679 83 q 714 85 703 83 q 736 89 724 86 l 736 1 q 699 -10 719 -6 q 666 -14 680 -14 q 566 24 597 -14 q 536 95 545 49 l 536 95 q 505 62 523 78 q 281 -20 414 -20 m 534 288 l 534 366 l 534 366 q 459 344 500 350 l 347 328 q 218 287 259 315 q 178 208 178 258 q 211 114 178 147 q 305 81 244 81 q 468 134 401 81 q 528 216 513 170 q 532 244 531 225 q 534 288 534 264 m 160 908 l 583 908 l 583 823 l 160 823 l 160 908 z "},"Ă":{"ha":926,"x_min":20,"x_max":908,"o":"m 20 0 l 396 997 l 473 997 l 550 997 l 908 0 l 908 0 l 836 0 l 763 0 l 763 0 l 662 289 l 662 289 l 263 289 l 263 289 l 159 0 l 159 0 l 90 0 l 20 0 l 20 0 m 467 850 l 307 408 l 307 408 l 621 408 l 621 408 l 467 850 l 467 850 l 467 850 m 473 1097 q 321 1146 377 1097 q 258 1286 266 1196 l 324 1286 q 375 1202 338 1230 q 473 1174 412 1174 q 572 1199 538 1174 q 621 1286 606 1224 l 687 1286 q 624 1146 680 1196 q 473 1097 568 1097 z "},"ă":{"ha":772,"x_min":50,"x_max":736,"o":"m 281 -20 q 113 37 175 -20 q 50 191 50 94 q 109 347 50 289 q 280 418 168 404 l 446 439 q 485 446 467 441 q 522 471 509 452 q 534 517 534 489 l 534 523 q 490 614 534 581 q 368 647 446 647 q 250 612 292 647 q 199 508 208 577 l 199 508 l 86 508 l 86 508 q 170 687 95 627 q 386 747 245 747 q 587 690 518 747 q 656 523 656 633 l 656 124 q 668 95 656 106 q 698 83 679 83 q 714 85 703 83 q 736 89 724 86 l 736 1 q 699 -10 719 -6 q 666 -14 680 -14 q 566 24 597 -14 q 536 95 545 49 l 536 95 q 505 62 523 78 q 281 -20 414 -20 m 534 288 l 534 366 l 534 366 q 459 344 500 350 l 347 328 q 218 287 259 315 q 178 208 178 258 q 211 114 178 147 q 305 81 244 81 q 468 134 401 81 q 528 216 513 170 q 532 244 531 225 q 534 288 534 264 m 372 825 q 220 875 276 825 q 157 1015 165 924 l 223 1015 q 274 930 237 958 q 372 903 311 903 q 471 928 437 903 q 520 1015 505 953 l 586 1015 q 523 875 578 924 q 372 825 467 825 z "},"Ą":{"ha":926,"x_min":20,"x_max":908,"o":"m 20 0 l 396 997 l 473 997 l 550 997 l 908 0 l 908 0 l 836 0 l 763 0 l 763 0 l 662 289 l 662 289 l 263 289 l 263 289 l 159 0 l 159 0 l 90 0 l 20 0 l 20 0 m 467 850 l 307 408 l 307 408 l 621 408 l 621 408 l 467 850 l 467 850 l 467 850 m 610 -184 q 652 -68 610 -119 q 763 1 694 -17 l 855 1 l 855 -5 q 749 -81 783 -42 q 716 -173 716 -120 q 735 -229 716 -211 q 794 -247 754 -247 q 840 -241 817 -247 q 883 -225 863 -235 l 907 -281 q 844 -303 881 -295 q 774 -312 808 -312 q 654 -277 700 -312 q 610 -184 610 -241 z "},"ą":{"ha":772,"x_min":50,"x_max":736,"o":"m 281 -20 q 113 37 175 -20 q 50 191 50 94 q 109 347 50 289 q 280 418 168 404 l 446 439 q 485 446 467 441 q 522 471 509 452 q 534 517 534 489 l 534 523 q 490 614 534 581 q 368 647 446 647 q 250 612 292 647 q 199 508 208 577 l 199 508 l 86 508 l 86 508 q 170 687 95 627 q 386 747 245 747 q 587 690 518 747 q 656 523 656 633 l 656 124 q 668 95 656 106 q 698 83 679 83 q 714 85 703 83 q 736 89 724 86 l 736 1 q 699 -10 719 -6 q 666 -14 680 -14 q 566 24 597 -14 q 536 95 545 49 l 536 95 q 505 62 523 78 q 281 -20 414 -20 m 534 288 l 534 366 l 534 366 q 459 344 500 350 l 347 328 q 218 287 259 315 q 178 208 178 258 q 211 114 178 147 q 305 81 244 81 q 468 134 401 81 q 528 216 513 170 q 532 244 531 225 q 534 288 534 264 m 436 -184 q 478 -68 436 -119 q 589 1 520 -17 l 682 1 l 682 -5 q 576 -81 609 -42 q 543 -173 543 -120 q 562 -229 543 -211 q 621 -247 581 -247 q 666 -241 643 -247 q 709 -225 690 -235 l 733 -281 q 671 -303 707 -295 q 600 -312 634 -312 q 481 -277 526 -312 q 436 -184 436 -241 z "},"Ć":{"ha":1003,"x_min":61,"x_max":946,"o":"m 946 367 l 946 367 q 805 78 920 182 q 512 -27 689 -27 q 183 115 306 -27 q 61 498 61 257 q 188 881 61 739 q 530 1024 315 1024 q 807 937 699 1024 q 937 698 916 850 l 937 698 l 807 698 l 807 698 q 715 851 788 797 q 528 905 642 905 q 289 794 378 905 q 200 498 200 684 q 282 196 200 300 q 522 92 365 92 q 714 164 637 92 q 816 367 791 235 l 816 367 l 946 367 m 464 1095 l 587 1290 l 737 1290 l 558 1095 l 464 1095 z "},"ć":{"ha":694,"x_min":41,"x_max":663,"o":"m 663 261 l 663 261 q 566 52 644 124 q 358 -20 488 -20 q 127 84 214 -20 q 41 363 41 188 q 131 643 41 539 q 370 747 220 747 q 579 676 501 747 q 663 479 657 604 l 663 479 l 545 479 l 545 479 q 491 600 538 557 q 366 642 444 642 q 221 568 274 642 q 169 363 169 494 q 218 155 169 225 q 363 85 267 85 q 482 131 434 85 q 545 261 530 177 l 545 261 l 663 261 m 311 823 l 434 1019 l 584 1019 l 405 823 l 311 823 z "},"Č":{"ha":1003,"x_min":61,"x_max":946,"o":"m 946 367 l 946 367 q 805 78 920 182 q 512 -27 689 -27 q 183 115 306 -27 q 61 498 61 257 q 188 881 61 739 q 530 1024 315 1024 q 807 937 699 1024 q 937 698 916 850 l 937 698 l 807 698 l 807 698 q 715 851 788 797 q 528 905 642 905 q 289 794 378 905 q 200 498 200 684 q 282 196 200 300 q 522 92 365 92 q 714 164 637 92 q 816 367 791 235 l 816 367 l 946 367 m 469 1095 l 331 1290 l 441 1290 l 533 1160 l 533 1160 l 625 1290 l 735 1290 l 597 1095 l 533 1095 l 469 1095 z "},"č":{"ha":694,"x_min":41,"x_max":663,"o":"m 663 261 l 663 261 q 566 52 644 124 q 358 -20 488 -20 q 127 84 214 -20 q 41 363 41 188 q 131 643 41 539 q 370 747 220 747 q 579 676 501 747 q 663 479 657 604 l 663 479 l 545 479 l 545 479 q 491 600 538 557 q 366 642 444 642 q 221 568 274 642 q 169 363 169 494 q 218 155 169 225 q 363 85 267 85 q 482 131 434 85 q 545 261 530 177 l 545 261 l 663 261 m 317 823 l 180 1019 l 290 1019 l 382 888 l 382 888 l 473 1019 l 584 1019 l 446 823 l 382 823 l 317 823 z "},"Ď":{"ha":1003,"x_min":113,"x_max":937,"o":"m 113 0 l 113 997 l 113 997 l 180 997 l 180 997 l 522 997 q 824 862 712 997 q 937 498 937 726 q 822 135 937 270 q 511 0 707 0 l 180 0 l 180 0 l 113 0 l 113 0 m 248 115 l 248 115 l 494 115 q 719 215 640 115 q 798 498 798 315 q 722 782 798 682 q 506 882 646 882 l 248 882 l 248 882 l 248 115 m 381 1095 l 243 1290 l 354 1290 l 446 1160 l 446 1160 l 537 1290 l 648 1290 l 510 1095 l 446 1095 l 381 1095 z "},"ď":{"ha":902,"x_min":48,"x_max":886,"o":"m 366 -20 q 134 89 220 -20 q 48 383 48 198 q 132 647 48 547 q 349 747 215 747 q 561 634 483 747 l 570 621 l 570 621 l 570 997 l 570 997 l 631 997 l 692 997 l 692 997 l 692 0 l 692 0 l 636 0 l 579 0 l 579 0 l 579 99 l 579 99 l 564 77 q 366 -20 488 -20 m 373 637 q 223 572 271 637 q 176 364 176 507 q 227 157 176 230 q 373 85 278 85 q 516 152 462 85 q 570 328 570 218 q 519 557 570 477 q 373 637 468 637 m 758 930 l 758 997 l 822 997 l 886 997 l 886 885 q 860 736 886 776 q 752 677 835 696 l 752 677 l 752 734 l 752 734 q 806 777 791 741 q 820 863 818 805 l 820 863 l 758 863 l 758 930 z "},"Đ":{"ha":1003,"x_min":0,"x_max":937,"o":"m 107 0 l 107 0 l 107 452 l 107 452 l 0 452 l 0 545 l 107 545 l 107 545 l 107 997 l 107 997 l 174 997 l 174 997 l 519 997 q 824 862 711 997 q 937 498 937 726 q 821 135 937 270 q 509 0 705 0 l 174 0 l 174 0 l 107 0 m 242 882 l 242 882 l 242 545 l 242 545 l 514 545 l 514 452 l 242 452 l 242 452 l 242 115 l 242 115 l 492 115 q 718 215 638 115 q 798 498 798 315 q 721 782 798 682 q 503 882 644 882 l 242 882 z "},"đ":{"ha":772,"x_min":49,"x_max":802,"o":"m 367 -20 q 135 89 221 -20 q 49 383 49 198 q 132 647 49 547 q 350 747 216 747 q 562 634 484 747 l 571 621 l 571 621 l 571 836 l 332 836 l 332 923 l 571 923 l 571 997 l 571 997 l 632 997 l 693 997 l 693 997 l 693 923 l 802 923 l 802 836 l 693 836 l 693 0 l 693 0 l 632 0 l 571 0 l 571 0 l 571 85 l 571 85 l 564 77 q 367 -20 489 -20 m 374 637 q 224 572 271 637 q 176 364 176 507 q 228 157 176 230 q 374 85 279 85 q 517 152 463 85 q 571 328 571 218 q 520 557 571 477 q 374 637 469 637 z "},"Ē":{"ha":926,"x_min":119,"x_max":856,"o":"m 119 0 l 119 0 l 119 997 l 119 997 l 848 997 l 848 997 l 848 937 l 848 878 l 848 878 l 254 878 l 254 878 l 254 573 l 254 573 l 797 573 l 797 513 l 797 454 l 797 454 l 254 454 l 254 454 l 254 119 l 254 119 l 856 119 l 856 119 l 856 60 l 856 0 l 856 0 l 119 0 m 288 1179 l 711 1179 l 711 1095 l 288 1095 l 288 1179 z "},"ē":{"ha":772,"x_min":56,"x_max":717,"o":"m 386 -20 q 144 78 232 -20 q 56 348 56 176 q 149 639 56 531 q 399 747 242 747 q 629 642 542 747 q 717 363 717 536 l 715 320 l 715 320 l 185 320 l 185 320 q 235 155 193 212 q 397 85 286 85 q 519 125 467 85 q 583 225 572 164 l 583 225 l 704 225 l 704 225 q 595 43 677 106 q 386 -20 514 -20 m 589 418 l 589 418 q 539 576 584 519 q 394 638 490 638 q 240 566 298 638 q 185 418 195 510 l 185 418 l 589 418 m 188 908 l 611 908 l 611 823 l 188 823 l 188 908 z "},"Ė":{"ha":926,"x_min":119,"x_max":856,"o":"m 119 0 l 119 0 l 119 997 l 119 997 l 848 997 l 848 997 l 848 937 l 848 878 l 848 878 l 254 878 l 254 878 l 254 573 l 254 573 l 797 573 l 797 513 l 797 454 l 797 454 l 254 454 l 254 454 l 254 119 l 254 119 l 856 119 l 856 119 l 856 60 l 856 0 l 856 0 l 119 0 m 436 1252 l 562 1252 l 562 1110 l 436 1110 l 436 1252 z "},"ė":{"ha":772,"x_min":56,"x_max":717,"o":"m 386 -20 q 144 78 232 -20 q 56 348 56 176 q 149 639 56 531 q 399 747 242 747 q 629 642 542 747 q 717 363 717 536 l 715 320 l 715 320 l 185 320 l 185 320 q 235 155 193 212 q 397 85 286 85 q 519 125 467 85 q 583 225 572 164 l 583 225 l 704 225 l 704 225 q 595 43 677 106 q 386 -20 514 -20 m 589 418 l 589 418 q 539 576 584 519 q 394 638 490 638 q 240 566 298 638 q 185 418 195 510 l 185 418 l 589 418 m 336 981 l 463 981 l 463 839 l 336 839 l 336 981 z "},"Ę":{"ha":926,"x_min":119,"x_max":856,"o":"m 119 0 l 119 0 l 119 997 l 119 997 l 848 997 l 848 997 l 848 937 l 848 878 l 848 878 l 254 878 l 254 878 l 254 573 l 254 573 l 797 573 l 797 513 l 797 454 l 797 454 l 254 454 l 254 454 l 254 119 l 254 119 l 856 119 l 856 119 l 856 60 l 856 0 l 856 0 l 119 0 m 555 -184 q 597 -68 555 -119 q 709 1 640 -17 l 801 1 l 801 -5 q 695 -81 728 -42 q 662 -173 662 -120 q 681 -229 662 -211 q 740 -247 700 -247 q 786 -241 762 -247 q 829 -225 809 -235 l 852 -281 q 790 -303 827 -295 q 720 -312 753 -312 q 600 -277 646 -312 q 555 -184 555 -241 z "},"ę":{"ha":772,"x_min":56,"x_max":717,"o":"m 386 -20 q 144 78 232 -20 q 56 348 56 176 q 149 639 56 531 q 399 747 242 747 q 629 642 542 747 q 717 363 717 536 l 715 320 l 715 320 l 185 320 l 185 320 q 235 155 193 212 q 397 85 286 85 q 519 125 467 85 q 583 225 572 164 l 583 225 l 704 225 l 704 225 q 595 43 677 106 q 386 -20 514 -20 m 589 418 l 589 418 q 539 576 584 519 q 394 638 490 638 q 240 566 298 638 q 185 418 195 510 l 185 418 l 589 418 m 262 -184 q 304 -68 262 -119 q 416 1 347 -17 l 508 1 l 508 -5 q 402 -81 435 -42 q 369 -173 369 -120 q 388 -229 369 -211 q 447 -247 407 -247 q 493 -241 469 -247 q 536 -225 516 -235 l 559 -281 q 497 -303 534 -295 q 427 -312 460 -312 q 307 -277 353 -312 q 262 -184 262 -241 z "},"Ě":{"ha":926,"x_min":119,"x_max":856,"o":"m 119 0 l 119 0 l 119 997 l 119 997 l 848 997 l 848 997 l 848 937 l 848 878 l 848 878 l 254 878 l 254 878 l 254 573 l 254 573 l 797 573 l 797 513 l 797 454 l 797 454 l 254 454 l 254 454 l 254 119 l 254 119 l 856 119 l 856 119 l 856 60 l 856 0 l 856 0 l 119 0 m 438 1095 l 300 1290 l 411 1290 l 503 1160 l 503 1160 l 594 1290 l 705 1290 l 567 1095 l 503 1095 l 438 1095 z "},"ě":{"ha":772,"x_min":56,"x_max":717,"o":"m 386 -20 q 144 78 232 -20 q 56 348 56 176 q 149 639 56 531 q 399 747 242 747 q 629 642 542 747 q 717 363 717 536 l 715 320 l 715 320 l 185 320 l 185 320 q 235 155 193 212 q 397 85 286 85 q 519 125 467 85 q 583 225 572 164 l 583 225 l 704 225 l 704 225 q 595 43 677 106 q 386 -20 514 -20 m 589 418 l 589 418 q 539 576 584 519 q 394 638 490 638 q 240 566 298 638 q 185 418 195 510 l 185 418 l 589 418 m 347 823 l 209 1019 l 319 1019 l 411 888 l 411 888 l 503 1019 l 613 1019 l 475 823 l 411 823 l 347 823 z "},"Ğ":{"ha":1080,"x_min":66,"x_max":977,"o":"m 530 -27 q 195 118 323 -27 q 66 498 66 262 q 197 879 66 734 q 540 1024 328 1024 q 821 932 703 1024 q 959 698 939 841 l 959 698 l 829 698 l 829 698 q 732 851 810 797 q 532 905 655 905 q 296 792 386 905 q 205 496 205 679 q 293 195 205 301 q 538 88 380 88 q 787 201 692 88 q 814 238 802 218 q 842 312 831 264 q 853 402 853 359 l 853 414 l 853 414 l 541 414 l 541 528 l 977 528 l 977 1 l 893 1 l 861 126 l 861 126 l 853 117 q 530 -27 730 -27 m 540 1097 q 389 1146 444 1097 q 326 1286 333 1196 l 391 1286 q 443 1202 406 1230 q 540 1174 479 1174 q 639 1199 606 1174 q 688 1286 673 1224 l 754 1286 q 691 1146 747 1196 q 540 1097 635 1097 z "},"ğ":{"ha":772,"x_min":56,"x_max":693,"o":"m 356 -205 q 516 -139 461 -205 q 571 54 571 -73 l 571 77 l 570 77 q 374 -20 495 -20 q 142 89 228 -20 q 56 383 56 198 q 140 647 56 547 q 362 747 225 747 q 570 634 493 747 l 578 621 l 578 621 l 578 726 l 578 726 l 693 726 l 693 54 q 610 -218 692 -130 q 358 -307 528 -307 q 162 -250 235 -307 q 75 -84 90 -193 l 75 -84 l 199 -84 l 199 -84 q 251 -174 210 -142 q 356 -205 292 -205 m 380 636 q 230 571 277 636 q 183 364 183 506 q 234 158 183 231 q 380 86 286 86 q 523 153 469 86 q 577 328 577 219 q 528 559 577 482 q 380 636 479 636 m 362 825 q 211 875 267 825 q 148 1015 155 924 l 214 1015 q 265 930 228 958 q 362 903 302 903 q 461 928 428 903 q 511 1015 495 953 l 576 1015 q 513 875 569 924 q 362 825 458 825 z "},"Ģ":{"ha":1080,"x_min":66,"x_max":977,"o":"m 530 -27 q 195 118 323 -27 q 66 498 66 262 q 197 879 66 734 q 540 1024 328 1024 q 821 932 703 1024 q 959 698 939 841 l 959 698 l 829 698 l 829 698 q 732 851 810 797 q 532 905 655 905 q 296 792 386 905 q 205 496 205 679 q 293 195 205 301 q 538 88 380 88 q 787 201 692 88 q 814 238 802 218 q 842 312 831 264 q 853 402 853 359 l 853 414 l 853 414 l 541 414 l 541 528 l 977 528 l 977 1 l 893 1 l 861 126 l 861 126 l 853 117 q 530 -27 730 -27 m 467 -165 l 467 -98 l 531 -98 l 595 -98 l 595 -210 q 569 -358 595 -319 q 461 -418 544 -398 l 461 -418 l 461 -361 l 461 -361 q 515 -317 500 -354 q 529 -232 527 -290 l 529 -232 l 467 -232 l 467 -165 z "},"ģ":{"ha":772,"x_min":56,"x_max":693,"o":"m 356 -205 q 516 -139 461 -205 q 571 54 571 -73 l 571 77 l 570 77 q 374 -20 495 -20 q 142 89 228 -20 q 56 383 56 198 q 140 647 56 547 q 362 747 225 747 q 570 634 493 747 l 578 621 l 578 621 l 578 726 l 578 726 l 693 726 l 693 54 q 610 -218 692 -130 q 358 -307 528 -307 q 162 -250 235 -307 q 75 -84 90 -193 l 75 -84 l 199 -84 l 199 -84 q 251 -174 210 -142 q 356 -205 292 -205 m 380 636 q 230 571 277 636 q 183 364 183 506 q 234 158 183 231 q 380 86 286 86 q 523 153 469 86 q 577 328 577 219 q 528 559 577 482 q 380 636 479 636 m 422 890 l 422 823 l 359 823 l 295 823 l 295 935 q 320 1084 295 1044 q 429 1143 346 1124 l 429 1143 l 429 1086 l 429 1086 q 374 1043 389 1080 q 361 958 363 1015 l 361 958 l 422 958 l 422 890 z "},"Ī":{"ha":386,"x_min":-16,"x_max":407,"o":"m 128 0 l 128 997 l 128 997 l 195 997 l 263 997 l 263 997 l 263 0 l 263 0 l 196 0 l 128 0 l 128 0 m -16 1179 l 407 1179 l 407 1095 l -16 1095 l -16 1179 z "},"ī":{"ha":386,"x_min":-24,"x_max":399,"o":"m 126 0 l 126 726 l 126 726 l 187 726 l 248 726 l 248 726 l 248 0 l 248 0 l 187 0 l 126 0 l 126 0 m -24 908 l 399 908 l 399 823 l -24 823 l -24 908 z "},"Į":{"ha":386,"x_min":14,"x_max":311,"o":"m 130 0 l 130 997 l 130 997 l 197 997 l 265 997 l 265 997 l 265 0 l 265 0 l 198 0 l 130 0 l 130 0 m 14 -184 q 56 -68 14 -119 q 168 1 98 -17 l 260 1 l 260 -5 q 154 -81 187 -42 q 121 -173 121 -120 q 140 -229 121 -211 q 199 -247 159 -247 q 244 -241 221 -247 q 288 -225 268 -235 l 311 -281 q 249 -303 286 -295 q 178 -312 212 -312 q 59 -277 104 -312 q 14 -184 14 -241 z "},"į":{"ha":386,"x_min":7,"x_max":304,"o":"m 140 0 l 140 726 l 140 726 l 201 726 l 262 726 l 262 726 l 262 0 l 262 0 l 201 0 l 140 0 l 140 0 m 138 997 l 263 997 l 263 859 l 138 859 l 138 997 m 7 -184 q 50 -68 7 -119 q 161 1 92 -17 l 253 1 l 253 -5 q 147 -81 180 -42 q 114 -173 114 -120 q 133 -229 114 -211 q 192 -247 152 -247 q 238 -241 214 -247 q 281 -225 261 -235 l 304 -281 q 242 -303 279 -295 q 172 -312 205 -312 q 52 -277 98 -312 q 7 -184 7 -241 z "},"İ":{"ha":386,"x_min":126,"x_max":261,"o":"m 126 0 l 126 997 l 126 997 l 193 997 l 261 997 l 261 997 l 261 0 l 261 0 l 194 0 l 126 0 l 126 0 m 130 1252 l 256 1252 l 256 1110 l 130 1110 l 130 1252 z "},"Ķ":{"ha":926,"x_min":106,"x_max":921,"o":"m 106 0 l 106 997 l 106 997 l 173 997 l 241 997 l 241 997 l 241 513 l 241 513 l 726 997 l 726 997 l 819 997 l 913 997 l 913 997 l 490 589 l 490 589 l 921 0 l 921 0 l 833 0 l 745 0 l 745 0 l 391 493 l 391 493 l 241 348 l 241 348 l 241 0 l 241 0 l 174 0 l 106 0 l 106 0 m 430 -165 l 430 -98 l 494 -98 l 557 -98 l 557 -210 q 532 -358 557 -319 q 424 -418 507 -398 l 424 -418 l 424 -361 l 424 -361 q 478 -317 463 -354 q 492 -232 490 -290 l 492 -232 l 430 -232 l 430 -165 z "},"ķ":{"ha":694,"x_min":93,"x_max":695,"o":"m 93 0 l 93 997 l 93 997 l 154 997 l 215 997 l 215 997 l 215 422 l 215 422 l 522 726 l 522 726 l 599 726 l 677 726 l 677 726 l 401 456 l 401 456 l 695 0 l 695 0 l 616 0 l 536 0 l 536 0 l 311 369 l 311 369 l 215 275 l 215 275 l 215 0 l 215 0 l 154 0 l 93 0 l 93 0 m 312 -165 l 312 -98 l 376 -98 l 439 -98 l 439 -210 q 414 -358 439 -319 q 306 -418 389 -398 l 306 -418 l 306 -361 l 306 -361 q 360 -317 345 -354 q 374 -232 372 -290 l 374 -232 l 312 -232 l 312 -165 z "},"Ĺ":{"ha":772,"x_min":106,"x_max":746,"o":"m 106 0 l 106 0 l 106 997 l 106 997 l 173 997 l 241 997 l 241 997 l 241 119 l 241 119 l 746 119 l 746 119 l 746 60 l 746 0 l 746 0 l 106 0 m 107 1095 l 231 1290 l 380 1290 l 201 1095 l 107 1095 z "},"ĺ":{"ha":309,"x_min":93,"x_max":366,"o":"m 98 0 l 98 997 l 98 997 l 159 997 l 220 997 l 220 997 l 220 0 l 220 0 l 159 0 l 98 0 l 98 0 m 93 1095 l 216 1290 l 366 1290 l 187 1095 l 93 1095 z "},"Ļ":{"ha":772,"x_min":106,"x_max":746,"o":"m 106 0 l 106 0 l 106 997 l 106 997 l 173 997 l 241 997 l 241 997 l 241 119 l 241 119 l 746 119 l 746 119 l 746 60 l 746 0 l 746 0 l 106 0 m 363 -165 l 363 -98 l 427 -98 l 490 -98 l 490 -210 q 465 -358 490 -319 q 357 -418 439 -398 l 357 -418 l 357 -361 l 357 -361 q 411 -317 396 -354 q 425 -232 422 -290 l 425 -232 l 363 -232 l 363 -165 z "},"ļ":{"ha":309,"x_min":93,"x_max":227,"o":"m 101 0 l 101 997 l 101 997 l 162 997 l 223 997 l 223 997 l 223 0 l 223 0 l 162 0 l 101 0 l 101 0 m 99 -165 l 99 -98 l 163 -98 l 227 -98 l 227 -210 q 201 -358 227 -319 q 93 -418 176 -398 l 93 -418 l 93 -361 l 93 -361 q 147 -317 132 -354 q 161 -232 159 -290 l 161 -232 l 99 -232 l 99 -165 z "},"Ľ":{"ha":772,"x_min":106,"x_max":746,"o":"m 106 0 l 106 0 l 106 997 l 106 997 l 173 997 l 241 997 l 241 997 l 241 119 l 241 119 l 746 119 l 746 119 l 746 60 l 746 0 l 746 0 l 106 0 m 436 930 l 436 997 l 500 997 l 564 997 l 564 885 q 538 736 564 776 q 430 677 513 696 l 430 677 l 430 734 l 430 734 q 484 777 469 741 q 498 863 496 805 l 498 863 l 436 863 l 436 930 z "},"ľ":{"ha":463,"x_min":139,"x_max":454,"o":"m 139 0 l 139 997 l 139 997 l 200 997 l 261 997 l 261 997 l 261 0 l 261 0 l 200 0 l 139 0 l 139 0 m 327 930 l 327 997 l 391 997 l 454 997 l 454 885 q 429 736 454 776 q 321 677 404 696 l 321 677 l 321 734 l 321 734 q 375 777 360 741 q 389 863 387 805 l 389 863 l 327 863 l 327 930 z "},"Ł":{"ha":772,"x_min":0,"x_max":771,"o":"m 131 0 l 131 0 l 131 476 l 0 404 l 0 484 l 131 556 l 131 997 l 131 997 l 198 997 l 266 997 l 266 997 l 266 631 l 431 722 l 431 642 l 266 551 l 266 119 l 266 119 l 771 119 l 771 119 l 771 60 l 771 0 l 771 0 l 131 0 z "},"ł":{"ha":309,"x_min":-25,"x_max":336,"o":"m 94 0 l 94 470 l -25 403 l -25 482 l 94 549 l 94 997 l 94 997 l 155 997 l 216 997 l 216 997 l 216 617 l 336 684 l 336 605 l 216 538 l 216 0 l 216 0 l 155 0 l 94 0 l 94 0 z "},"Ń":{"ha":1003,"x_min":106,"x_max":897,"o":"m 236 0 l 236 0 l 171 0 l 106 0 l 106 0 l 106 997 l 106 997 l 186 997 l 268 997 l 268 997 l 767 186 l 767 186 l 767 186 l 767 997 l 767 997 l 832 997 l 897 997 l 897 997 l 897 0 l 823 0 l 749 0 l 236 813 l 236 813 l 236 813 l 236 0 m 435 1095 l 559 1290 l 709 1290 l 530 1095 l 435 1095 z "},"ń":{"ha":772,"x_min":90,"x_max":682,"o":"m 90 0 l 90 726 l 90 726 l 148 726 l 206 726 l 206 726 l 206 618 l 206 618 l 206 618 l 233 654 q 432 747 313 747 q 617 682 552 747 q 682 497 682 617 l 682 0 l 682 0 l 621 0 l 560 0 l 560 0 l 560 456 q 523 594 560 551 q 404 636 486 636 q 264 569 315 636 q 212 389 212 503 l 212 389 l 212 0 l 212 0 l 151 0 l 90 0 l 90 0 m 326 823 l 450 1019 l 600 1019 l 420 823 l 326 823 z "},"Ņ":{"ha":1003,"x_min":106,"x_max":897,"o":"m 236 0 l 236 0 l 171 0 l 106 0 l 106 0 l 106 997 l 106 997 l 186 997 l 268 997 l 268 997 l 767 186 l 767 186 l 767 186 l 767 997 l 767 997 l 832 997 l 897 997 l 897 997 l 897 0 l 823 0 l 749 0 l 236 813 l 236 813 l 236 813 l 236 0 m 438 -165 l 438 -98 l 502 -98 l 566 -98 l 566 -210 q 540 -358 566 -319 q 432 -418 515 -398 l 432 -418 l 432 -361 l 432 -361 q 486 -317 471 -354 q 500 -232 498 -290 l 500 -232 l 438 -232 l 438 -165 z "},"ņ":{"ha":772,"x_min":90,"x_max":682,"o":"m 90 0 l 90 726 l 90 726 l 148 726 l 206 726 l 206 726 l 206 618 l 206 618 l 206 618 l 233 654 q 432 747 313 747 q 617 682 552 747 q 682 497 682 617 l 682 0 l 682 0 l 621 0 l 560 0 l 560 0 l 560 456 q 523 594 560 551 q 404 636 486 636 q 264 569 315 636 q 212 389 212 503 l 212 389 l 212 0 l 212 0 l 151 0 l 90 0 l 90 0 m 323 -165 l 323 -98 l 387 -98 l 450 -98 l 450 -210 q 425 -358 450 -319 q 317 -418 399 -398 l 317 -418 l 317 -361 l 317 -361 q 371 -317 356 -354 q 385 -232 382 -290 l 385 -232 l 323 -232 l 323 -165 z "},"Ň":{"ha":1003,"x_min":106,"x_max":897,"o":"m 236 0 l 236 0 l 171 0 l 106 0 l 106 0 l 106 997 l 106 997 l 186 997 l 268 997 l 268 997 l 767 186 l 767 186 l 767 186 l 767 997 l 767 997 l 832 997 l 897 997 l 897 997 l 897 0 l 823 0 l 749 0 l 236 813 l 236 813 l 236 813 l 236 0 m 440 1095 l 302 1290 l 413 1290 l 505 1160 l 505 1160 l 596 1290 l 707 1290 l 569 1095 l 505 1095 l 440 1095 z "},"ň":{"ha":772,"x_min":90,"x_max":682,"o":"m 90 0 l 90 726 l 90 726 l 148 726 l 206 726 l 206 726 l 206 618 l 206 618 l 206 618 l 233 654 q 432 747 313 747 q 617 682 552 747 q 682 497 682 617 l 682 0 l 682 0 l 621 0 l 560 0 l 560 0 l 560 456 q 523 594 560 551 q 404 636 486 636 q 264 569 315 636 q 212 389 212 503 l 212 389 l 212 0 l 212 0 l 151 0 l 90 0 l 90 0 m 333 823 l 195 1019 l 306 1019 l 397 888 l 397 888 l 489 1019 l 600 1019 l 462 823 l 397 823 l 333 823 z "},"Ō":{"ha":1080,"x_min":54,"x_max":1026,"o":"m 540 -27 q 189 118 323 -27 q 54 498 54 262 q 189 879 54 734 q 540 1024 323 1024 q 892 879 758 1024 q 1026 498 1026 734 q 892 118 1026 262 q 540 -27 758 -27 l 540 -27 m 540 92 q 791 204 696 92 q 887 498 887 316 q 791 792 887 680 q 540 905 696 905 q 289 792 385 905 q 193 498 193 680 q 289 204 193 316 q 540 92 385 92 l 540 92 m 328 1179 l 751 1179 l 751 1095 l 328 1095 l 328 1179 z "},"ō":{"ha":772,"x_min":49,"x_max":724,"o":"m 386 -20 q 142 86 235 -20 q 49 363 49 192 q 142 642 49 536 q 386 747 235 747 q 631 642 538 747 q 724 363 724 536 q 631 86 724 192 q 386 -20 538 -20 l 386 -20 m 386 85 q 539 161 482 85 q 596 363 596 236 q 539 567 596 491 q 386 642 482 642 q 233 567 290 642 q 176 363 176 491 q 233 161 176 236 q 386 85 290 85 l 386 85 m 174 908 l 597 908 l 597 823 l 174 823 l 174 908 z "},"Ő":{"ha":1080,"x_min":54,"x_max":1026,"o":"m 540 -27 q 189 118 323 -27 q 54 498 54 262 q 189 879 54 734 q 540 1024 323 1024 q 892 879 758 1024 q 1026 498 1026 734 q 892 118 1026 262 q 540 -27 758 -27 l 540 -27 m 540 92 q 791 204 696 92 q 887 498 887 316 q 791 792 887 680 q 540 905 696 905 q 289 792 385 905 q 193 498 193 680 q 289 204 193 316 q 540 92 385 92 l 540 92 m 351 1097 l 475 1292 l 625 1292 l 446 1097 l 351 1097 m 600 1097 l 724 1292 l 873 1292 l 694 1097 l 600 1097 z "},"ő":{"ha":772,"x_min":49,"x_max":724,"o":"m 386 -20 q 142 86 235 -20 q 49 363 49 192 q 142 642 49 536 q 386 747 235 747 q 631 642 538 747 q 724 363 724 536 q 631 86 724 192 q 386 -20 538 -20 l 386 -20 m 386 85 q 539 161 482 85 q 596 363 596 236 q 539 567 596 491 q 386 642 482 642 q 233 567 290 642 q 176 363 176 491 q 233 161 176 236 q 386 85 290 85 l 386 85 m 192 823 l 315 1019 l 465 1019 l 286 823 l 192 823 m 441 823 l 564 1019 l 714 1019 l 535 823 l 441 823 z "},"Œ":{"ha":1389,"x_min":50,"x_max":1340,"o":"m 470 1023 q 722 913 633 1024 l 722 913 l 722 997 l 850 997 l 850 997 l 1327 997 l 1327 997 l 1327 937 l 1327 878 l 1327 878 l 850 878 l 850 878 l 850 573 l 850 573 l 1315 573 l 1315 513 l 1315 454 l 1315 454 l 850 454 l 850 454 l 850 119 l 850 119 l 1340 119 l 1340 119 l 1340 60 l 1340 0 l 1340 0 l 850 0 l 850 0 l 722 0 l 722 89 l 722 89 q 454 -24 628 -24 q 160 117 269 -24 q 50 499 50 259 q 164 882 50 739 q 470 1023 278 1023 m 481 909 q 266 796 342 909 q 189 475 189 682 q 266 190 189 290 q 481 90 342 90 q 684 186 606 90 q 711 242 700 206 q 722 309 722 277 l 722 684 q 712 753 722 717 q 688 808 702 789 q 481 909 613 909 z "},"œ":{"ha":1311,"x_min":49,"x_max":1253,"o":"m 384 747 q 627 642 534 747 q 656 602 644 623 l 656 602 q 685 640 670 622 q 935 747 778 747 q 1165 642 1078 747 q 1253 363 1253 536 l 1251 320 l 1251 320 l 721 320 l 721 320 q 770 155 728 212 q 933 85 822 85 q 1055 125 1003 85 q 1119 225 1107 164 l 1119 225 l 1240 225 l 1240 225 q 1131 43 1213 106 q 922 -20 1050 -20 q 680 78 768 -20 q 650 116 664 96 l 650 116 l 627 86 q 384 -20 534 -20 q 141 86 234 -20 q 49 363 49 192 q 142 642 49 536 q 384 747 234 747 m 384 642 q 233 567 289 642 q 176 363 176 491 q 233 161 176 236 q 384 85 289 85 q 535 161 479 85 q 591 363 591 236 q 535 567 591 491 q 384 642 479 642 m 1125 418 l 1125 418 q 1075 576 1120 519 q 930 638 1025 638 q 776 566 833 638 q 721 418 730 510 l 721 418 l 1125 418 z "},"Ŕ":{"ha":1003,"x_min":122,"x_max":950,"o":"m 122 0 l 122 997 l 122 997 l 189 997 l 189 997 l 586 997 q 827 928 745 997 q 910 726 910 859 q 824 522 910 595 q 777 489 802 503 l 777 489 l 800 478 q 894 302 890 426 l 899 121 q 911 56 901 76 q 950 22 921 37 l 950 1 l 784 1 q 773 64 779 13 q 765 179 768 116 l 762 258 q 717 390 760 351 q 577 430 674 430 l 257 430 l 257 430 l 257 0 l 257 0 l 190 0 l 122 0 l 122 0 m 257 547 l 257 547 l 591 547 q 728 588 684 547 q 771 718 771 629 q 725 844 771 804 q 581 884 680 884 l 257 884 l 257 884 l 257 547 m 411 1095 l 534 1290 l 684 1290 l 505 1095 l 411 1095 z "},"ŕ":{"ha":463,"x_min":107,"x_max":498,"o":"m 107 0 l 107 726 l 107 726 l 165 726 l 223 726 l 223 726 l 223 602 l 223 602 l 223 602 q 256 654 239 631 q 427 747 326 747 q 461 741 444 747 l 461 616 l 436 617 q 283 558 337 617 q 229 389 229 498 l 229 389 l 229 0 l 229 0 l 168 0 l 107 0 l 107 0 m 224 823 l 348 1019 l 498 1019 l 319 823 l 224 823 z "},"Ŗ":{"ha":1003,"x_min":122,"x_max":950,"o":"m 122 0 l 122 997 l 122 997 l 189 997 l 189 997 l 586 997 q 827 928 745 997 q 910 726 910 859 q 824 522 910 595 q 777 489 802 503 l 777 489 l 800 478 q 894 302 890 426 l 899 121 q 911 56 901 76 q 950 22 921 37 l 950 1 l 784 1 q 773 64 779 13 q 765 179 768 116 l 762 258 q 717 390 760 351 q 577 430 674 430 l 257 430 l 257 430 l 257 0 l 257 0 l 190 0 l 122 0 l 122 0 m 257 547 l 257 547 l 591 547 q 728 588 684 547 q 771 718 771 629 q 725 844 771 804 q 581 884 680 884 l 257 884 l 257 884 l 257 547 m 450 -165 l 450 -98 l 514 -98 l 578 -98 l 578 -210 q 552 -358 578 -319 q 444 -418 527 -398 l 444 -418 l 444 -361 l 444 -361 q 498 -317 484 -354 q 512 -232 510 -290 l 512 -232 l 450 -232 l 450 -165 z "},"ŗ":{"ha":463,"x_min":107,"x_max":469,"o":"m 115 0 l 115 726 l 115 726 l 173 726 l 231 726 l 231 726 l 231 602 l 231 602 l 231 602 q 264 654 247 631 q 435 747 334 747 q 469 741 452 747 l 469 616 l 444 617 q 291 558 345 617 q 237 389 237 498 l 237 389 l 237 0 l 237 0 l 176 0 l 115 0 l 115 0 m 113 -165 l 113 -98 l 177 -98 l 241 -98 l 241 -210 q 215 -358 241 -319 q 107 -418 190 -398 l 107 -418 l 107 -361 l 107 -361 q 161 -317 146 -354 q 175 -232 173 -290 l 175 -232 l 113 -232 l 113 -165 z "},"Ř":{"ha":1003,"x_min":122,"x_max":950,"o":"m 122 0 l 122 997 l 122 997 l 189 997 l 189 997 l 586 997 q 827 928 745 997 q 910 726 910 859 q 824 522 910 595 q 777 489 802 503 l 777 489 l 800 478 q 894 302 890 426 l 899 121 q 911 56 901 76 q 950 22 921 37 l 950 1 l 784 1 q 773 64 779 13 q 765 179 768 116 l 762 258 q 717 390 760 351 q 577 430 674 430 l 257 430 l 257 430 l 257 0 l 257 0 l 190 0 l 122 0 l 122 0 m 257 547 l 257 547 l 591 547 q 728 588 684 547 q 771 718 771 629 q 725 844 771 804 q 581 884 680 884 l 257 884 l 257 884 l 257 547 m 416 1095 l 278 1290 l 389 1290 l 480 1160 l 480 1160 l 572 1290 l 682 1290 l 545 1095 l 480 1095 l 416 1095 z "},"ř":{"ha":463,"x_min":107,"x_max":511,"o":"m 121 0 l 121 726 l 121 726 l 178 726 l 237 726 l 237 726 l 237 602 l 237 602 l 237 602 q 270 654 252 631 q 440 747 339 747 q 475 741 457 747 l 475 616 l 450 617 q 297 558 351 617 q 243 389 243 498 l 243 389 l 243 0 l 243 0 l 182 0 l 121 0 l 121 0 m 245 823 l 107 1019 l 218 1019 l 309 888 l 309 888 l 401 1019 l 511 1019 l 374 823 l 309 823 l 245 823 z "},"Ś":{"ha":926,"x_min":68,"x_max":861,"o":"m 713 708 l 713 708 q 639 853 705 802 q 463 905 574 905 q 290 861 349 905 q 231 732 231 817 q 271 646 231 674 q 429 589 310 617 l 602 548 q 802 450 742 515 q 861 267 861 385 q 759 52 861 132 q 480 -27 656 -27 q 175 64 285 -27 q 68 311 68 155 l 68 319 l 68 319 l 192 319 l 192 319 q 271 151 195 210 q 480 92 346 92 q 669 135 604 92 q 733 260 733 178 q 690 367 733 332 q 521 431 648 401 l 347 473 q 159 559 216 504 q 103 713 103 615 q 200 940 103 857 q 463 1024 298 1024 q 731 940 631 1024 q 838 708 831 856 l 838 708 l 713 708 m 397 1095 l 521 1290 l 671 1290 l 492 1095 l 397 1095 z "},"ś":{"ha":694,"x_min":45,"x_max":644,"o":"m 506 515 l 506 515 q 457 609 500 576 q 339 642 413 642 q 223 616 263 642 q 184 538 184 589 q 212 480 184 500 q 322 441 239 460 l 448 411 q 600 340 554 385 q 644 214 644 295 q 567 43 644 106 q 357 -20 489 -20 q 128 41 203 -20 q 45 232 53 102 l 45 232 l 162 232 l 162 232 q 217 120 171 155 q 357 85 262 85 q 481 117 439 85 q 524 208 524 148 q 496 265 524 245 q 384 304 468 285 l 258 334 q 112 403 155 359 q 68 525 68 446 q 141 687 68 627 q 339 747 214 747 q 541 686 466 747 q 621 515 616 624 l 621 515 l 506 515 m 279 823 l 403 1019 l 553 1019 l 374 823 l 279 823 z "},"Ş":{"ha":926,"x_min":68,"x_max":861,"o":"m 713 708 l 713 708 q 639 853 705 802 q 463 905 574 905 q 290 861 349 905 q 231 732 231 817 q 271 646 231 674 q 429 589 310 617 l 602 548 q 802 450 742 515 q 861 267 861 385 q 759 52 861 132 q 480 -27 656 -27 q 175 64 285 -27 q 68 311 68 155 l 68 319 l 68 319 l 192 319 l 192 319 q 271 151 195 210 q 480 92 346 92 q 669 135 604 92 q 733 260 733 178 q 690 367 733 332 q 521 431 648 401 l 347 473 q 159 559 216 504 q 103 713 103 615 q 200 940 103 857 q 463 1024 298 1024 q 731 940 631 1024 q 838 708 831 856 l 838 708 l 713 708 m 501 1 l 438 -85 l 438 -85 l 479 -81 q 565 -109 534 -81 q 596 -185 596 -136 q 551 -277 596 -242 q 433 -313 506 -313 q 371 -304 408 -313 q 299 -283 334 -296 l 322 -227 q 372 -241 347 -236 q 413 -247 397 -247 q 472 -233 453 -247 q 491 -189 491 -218 q 472 -150 491 -165 q 424 -134 453 -134 q 401 -137 416 -134 q 370 -146 387 -140 l 347 -120 l 435 1 l 501 1 z "},"ş":{"ha":694,"x_min":45,"x_max":644,"o":"m 506 515 l 506 515 q 457 609 500 576 q 339 642 413 642 q 223 616 263 642 q 184 538 184 589 q 212 480 184 500 q 322 441 239 460 l 448 411 q 600 340 554 385 q 644 214 644 295 q 567 43 644 106 q 357 -20 489 -20 q 128 41 203 -20 q 45 232 53 102 l 45 232 l 162 232 l 162 232 q 217 120 171 155 q 357 85 262 85 q 481 117 439 85 q 524 208 524 148 q 496 265 524 245 q 384 304 468 285 l 258 334 q 112 403 155 359 q 68 525 68 446 q 141 687 68 627 q 339 747 214 747 q 541 686 466 747 q 621 515 616 624 l 621 515 l 506 515 m 378 1 l 315 -85 l 315 -85 l 355 -81 q 441 -109 410 -81 q 473 -185 473 -136 q 428 -277 473 -242 q 309 -313 382 -313 q 248 -304 285 -313 q 176 -283 211 -296 l 199 -227 q 248 -241 223 -236 q 290 -247 273 -247 q 349 -233 330 -247 q 368 -189 368 -218 q 349 -150 368 -165 q 300 -134 330 -134 q 278 -137 293 -134 q 246 -146 263 -140 l 223 -120 l 312 1 l 378 1 z "},"Š":{"ha":926,"x_min":68,"x_max":861,"o":"m 713 708 l 713 708 q 639 853 705 802 q 463 905 574 905 q 290 861 349 905 q 231 732 231 817 q 271 646 231 674 q 429 589 310 617 l 602 548 q 802 450 742 515 q 861 267 861 385 q 759 52 861 132 q 480 -27 656 -27 q 175 64 285 -27 q 68 311 68 155 l 68 319 l 68 319 l 192 319 l 192 319 q 271 151 195 210 q 480 92 346 92 q 669 135 604 92 q 733 260 733 178 q 690 367 733 332 q 521 431 648 401 l 347 473 q 159 559 216 504 q 103 713 103 615 q 200 940 103 857 q 463 1024 298 1024 q 731 940 631 1024 q 838 708 831 856 l 838 708 l 713 708 m 402 1095 l 264 1290 l 375 1290 l 467 1160 l 467 1160 l 558 1290 l 669 1290 l 531 1095 l 467 1095 l 402 1095 z "},"š":{"ha":694,"x_min":45,"x_max":644,"o":"m 506 515 l 506 515 q 457 609 500 576 q 339 642 413 642 q 223 616 263 642 q 184 538 184 589 q 212 480 184 500 q 322 441 239 460 l 448 411 q 600 340 554 385 q 644 214 644 295 q 567 43 644 106 q 357 -20 489 -20 q 128 41 203 -20 q 45 232 53 102 l 45 232 l 162 232 l 162 232 q 217 120 171 155 q 357 85 262 85 q 481 117 439 85 q 524 208 524 148 q 496 265 524 245 q 384 304 468 285 l 258 334 q 112 403 155 359 q 68 525 68 446 q 141 687 68 627 q 339 747 214 747 q 541 686 466 747 q 621 515 616 624 l 621 515 l 506 515 m 286 823 l 149 1019 l 259 1019 l 351 888 l 351 888 l 442 1019 l 553 1019 l 415 823 l 351 823 l 286 823 z "},"Ţ":{"ha":848,"x_min":20,"x_max":829,"o":"m 357 0 l 357 878 l 357 878 l 20 878 l 20 878 l 20 937 l 20 997 l 20 997 l 829 997 l 829 997 l 829 937 l 829 878 l 829 878 l 492 878 l 492 878 l 492 0 l 492 0 l 425 0 l 357 0 l 357 0 m 361 -163 l 361 -96 l 425 -96 l 489 -96 l 489 -208 q 464 -357 489 -317 q 355 -416 438 -397 l 355 -416 l 355 -359 l 355 -359 q 410 -316 395 -353 q 423 -231 421 -288 l 423 -231 l 361 -231 l 361 -163 z "},"ţ":{"ha":386,"x_min":20,"x_max":357,"o":"m 357 1 q 266 -9 294 -9 q 153 26 186 -9 q 120 148 120 62 l 120 626 l 120 626 l 20 626 l 20 726 l 120 726 l 120 726 l 120 929 l 242 929 l 242 726 l 242 726 l 357 726 l 357 626 l 242 626 l 242 626 l 242 148 q 261 109 242 123 q 313 95 281 95 l 357 95 l 357 1 m 187 -163 l 187 -96 l 251 -96 l 315 -96 l 315 -208 q 289 -357 315 -317 q 181 -416 264 -397 l 181 -416 l 181 -359 l 181 -359 q 235 -316 220 -353 q 249 -231 247 -288 l 249 -231 l 187 -231 l 187 -163 z "},"Ť":{"ha":848,"x_min":20,"x_max":829,"o":"m 357 0 l 357 878 l 357 878 l 20 878 l 20 878 l 20 937 l 20 997 l 20 997 l 829 997 l 829 997 l 829 937 l 829 878 l 829 878 l 492 878 l 492 878 l 492 0 l 492 0 l 425 0 l 357 0 l 357 0 m 363 1095 l 225 1290 l 336 1290 l 427 1160 l 427 1160 l 519 1290 l 629 1290 l 492 1095 l 427 1095 l 363 1095 z "},"ť":{"ha":521,"x_min":4,"x_max":504,"o":"m 341 1 q 250 -9 279 -9 q 137 26 170 -9 q 104 148 104 62 l 104 626 l 104 626 l 4 626 l 4 726 l 104 726 l 104 726 l 104 929 l 227 929 l 227 726 l 227 726 l 341 726 l 341 626 l 227 626 l 227 626 l 227 148 q 246 109 227 123 q 298 95 265 95 l 341 95 l 341 1 m 376 931 l 376 998 l 440 998 l 504 998 l 504 886 q 478 738 504 777 q 370 678 453 698 l 370 678 l 370 735 l 370 735 q 425 779 410 742 q 438 864 436 806 l 438 864 l 376 864 l 376 931 z "},"Ū":{"ha":1003,"x_min":110,"x_max":895,"o":"m 895 366 q 791 77 895 181 q 503 -27 687 -27 q 210 73 311 -27 q 110 366 110 173 l 110 997 l 110 997 l 177 997 l 245 997 l 245 997 l 245 376 q 311 164 245 237 q 503 92 376 92 q 694 164 629 92 q 760 376 760 237 l 760 997 l 760 997 l 827 997 l 895 997 l 895 997 l 895 366 m 290 1179 l 713 1179 l 713 1095 l 290 1095 l 290 1179 z "},"ū":{"ha":772,"x_min":94,"x_max":680,"o":"m 216 726 l 216 258 q 252 126 216 166 q 366 85 287 85 q 506 154 454 85 q 557 338 557 222 l 557 338 l 557 726 l 557 726 l 618 726 l 680 726 l 680 726 l 680 0 l 680 0 l 622 0 l 564 0 l 564 0 l 564 111 l 564 111 l 564 111 q 536 73 551 91 q 341 -20 458 -20 q 156 42 218 -20 q 94 227 94 104 l 94 726 l 94 726 l 155 726 l 216 726 l 216 726 m 175 908 l 598 908 l 598 823 l 175 823 l 175 908 z "},"Ů":{"ha":1003,"x_min":110,"x_max":895,"o":"m 895 366 q 791 77 895 181 q 503 -27 687 -27 q 210 73 311 -27 q 110 366 110 173 l 110 997 l 110 997 l 177 997 l 245 997 l 245 997 l 245 376 q 311 164 245 237 q 503 92 376 92 q 694 164 629 92 q 760 376 760 237 l 760 997 l 760 997 l 827 997 l 895 997 l 895 997 l 895 366 m 494 1036 q 404 1073 441 1036 q 367 1164 367 1110 q 404 1254 367 1217 q 494 1291 441 1291 q 585 1254 548 1291 q 622 1164 622 1217 q 585 1073 622 1110 q 494 1036 548 1036 l 494 1036 m 494 1091 q 546 1112 525 1091 q 567 1164 567 1133 q 546 1215 567 1194 q 494 1236 525 1236 q 443 1215 464 1236 q 422 1164 422 1194 q 443 1112 422 1133 q 494 1091 464 1091 l 494 1091 z "},"ů":{"ha":772,"x_min":94,"x_max":680,"o":"m 216 726 l 216 258 q 252 126 216 166 q 366 85 287 85 q 506 154 454 85 q 557 338 557 222 l 557 338 l 557 726 l 557 726 l 618 726 l 680 726 l 680 726 l 680 0 l 680 0 l 622 0 l 564 0 l 564 0 l 564 111 l 564 111 l 564 111 q 536 73 551 91 q 341 -20 458 -20 q 156 42 218 -20 q 94 227 94 104 l 94 726 l 94 726 l 155 726 l 216 726 l 216 726 m 404 795 q 314 832 351 795 q 277 922 277 869 q 314 1013 277 976 q 404 1050 351 1050 q 495 1013 458 1050 q 532 922 532 976 q 495 832 532 869 q 404 795 458 795 l 404 795 m 404 850 q 456 871 435 850 q 477 922 477 892 q 456 974 477 953 q 404 995 435 995 q 353 974 374 995 q 332 922 332 953 q 353 871 332 892 q 404 850 374 850 l 404 850 z "},"Ű":{"ha":1003,"x_min":110,"x_max":895,"o":"m 895 366 q 791 77 895 181 q 503 -27 687 -27 q 210 73 311 -27 q 110 366 110 173 l 110 997 l 110 997 l 177 997 l 245 997 l 245 997 l 245 376 q 311 164 245 237 q 503 92 376 92 q 694 164 629 92 q 760 376 760 237 l 760 997 l 760 997 l 827 997 l 895 997 l 895 997 l 895 366 m 313 1097 l 437 1292 l 587 1292 l 408 1097 l 313 1097 m 562 1097 l 686 1292 l 836 1292 l 656 1097 l 562 1097 z "},"ű":{"ha":772,"x_min":94,"x_max":715,"o":"m 216 726 l 216 258 q 252 126 216 166 q 366 85 287 85 q 506 154 454 85 q 557 338 557 222 l 557 338 l 557 726 l 557 726 l 618 726 l 680 726 l 680 726 l 680 0 l 680 0 l 622 0 l 564 0 l 564 0 l 564 111 l 564 111 l 564 111 q 536 73 551 91 q 341 -20 458 -20 q 156 42 218 -20 q 94 227 94 104 l 94 726 l 94 726 l 155 726 l 216 726 l 216 726 m 193 823 l 316 1019 l 466 1019 l 287 823 l 193 823 m 441 823 l 565 1019 l 715 1019 l 536 823 l 441 823 z "},"Ų":{"ha":1003,"x_min":110,"x_max":895,"o":"m 895 366 q 791 77 895 181 q 503 -27 687 -27 q 210 73 311 -27 q 110 366 110 173 l 110 997 l 110 997 l 177 997 l 245 997 l 245 997 l 245 376 q 311 164 245 237 q 503 92 376 92 q 694 164 629 92 q 760 376 760 237 l 760 997 l 760 997 l 827 997 l 895 997 l 895 997 l 895 366 m 366 -184 q 408 -68 366 -119 q 519 1 450 -17 l 611 1 l 611 -5 q 505 -81 538 -42 q 472 -173 472 -120 q 491 -229 472 -211 q 550 -247 510 -247 q 596 -241 572 -247 q 639 -225 619 -235 l 663 -281 q 600 -303 637 -295 q 530 -312 564 -312 q 410 -277 456 -312 q 366 -184 366 -241 z "},"ų":{"ha":772,"x_min":94,"x_max":726,"o":"m 216 726 l 216 258 q 252 126 216 166 q 366 85 287 85 q 506 154 454 85 q 557 338 557 222 l 557 338 l 557 726 l 557 726 l 618 726 l 680 726 l 680 726 l 680 0 l 680 0 l 622 0 l 564 0 l 564 0 l 564 111 l 564 111 l 564 111 q 536 73 551 91 q 341 -20 458 -20 q 156 42 218 -20 q 94 227 94 104 l 94 726 l 94 726 l 155 726 l 216 726 l 216 726 m 429 -184 q 471 -68 429 -119 q 582 1 513 -17 l 674 1 l 674 -5 q 568 -81 602 -42 q 535 -173 535 -120 q 554 -229 535 -211 q 613 -247 573 -247 q 659 -241 635 -247 q 702 -225 682 -235 l 726 -281 q 663 -303 700 -295 q 593 -312 627 -312 q 473 -277 519 -312 q 429 -184 429 -241 z "},"Ÿ":{"ha":926,"x_min":20,"x_max":907,"o":"m 396 399 l 396 399 l 20 997 l 20 997 l 98 997 l 178 997 l 178 997 l 464 513 l 464 513 l 751 997 l 751 997 l 829 997 l 907 997 l 907 997 l 531 397 l 531 397 l 531 0 l 464 0 l 396 0 l 396 399 m 288 1253 l 414 1253 l 414 1110 l 288 1110 l 288 1253 m 513 1253 l 639 1253 l 639 1110 l 513 1110 l 513 1253 z "},"Ź":{"ha":848,"x_min":32,"x_max":816,"o":"m 32 117 l 647 878 l 647 878 l 80 878 l 80 878 l 80 937 l 80 997 l 80 997 l 816 997 l 816 939 l 816 880 l 201 119 l 201 119 l 815 119 l 815 119 l 815 60 l 815 0 l 815 0 l 32 0 l 32 58 l 32 117 m 382 1095 l 505 1290 l 655 1290 l 476 1095 l 382 1095 z "},"ź":{"ha":694,"x_min":43,"x_max":652,"o":"m 43 96 l 478 624 l 478 624 l 75 624 l 75 624 l 75 675 l 75 726 l 75 726 l 642 726 l 642 678 l 642 630 l 206 102 l 206 102 l 652 102 l 652 102 l 652 51 l 652 0 l 652 0 l 43 0 l 43 47 l 43 96 m 298 823 l 422 1019 l 572 1019 l 393 823 l 298 823 z "},"Ż":{"ha":848,"x_min":32,"x_max":816,"o":"m 32 117 l 647 878 l 647 878 l 80 878 l 80 878 l 80 937 l 80 997 l 80 997 l 816 997 l 816 939 l 816 880 l 201 119 l 201 119 l 815 119 l 815 119 l 815 60 l 815 0 l 815 0 l 32 0 l 32 58 l 32 117 m 385 1252 l 511 1252 l 511 1110 l 385 1110 l 385 1252 z "},"ż":{"ha":694,"x_min":43,"x_max":652,"o":"m 43 96 l 478 624 l 478 624 l 75 624 l 75 624 l 75 675 l 75 726 l 75 726 l 642 726 l 642 678 l 642 630 l 206 102 l 206 102 l 652 102 l 652 102 l 652 51 l 652 0 l 652 0 l 43 0 l 43 47 l 43 96 m 295 981 l 421 981 l 421 839 l 295 839 l 295 981 z "},"Ž":{"ha":848,"x_min":32,"x_max":816,"o":"m 32 117 l 647 878 l 647 878 l 80 878 l 80 878 l 80 937 l 80 997 l 80 997 l 816 997 l 816 939 l 816 880 l 201 119 l 201 119 l 815 119 l 815 119 l 815 60 l 815 0 l 815 0 l 32 0 l 32 58 l 32 117 m 387 1095 l 249 1290 l 359 1290 l 451 1160 l 451 1160 l 543 1290 l 653 1290 l 515 1095 l 451 1095 l 387 1095 z "},"ž":{"ha":694,"x_min":43,"x_max":652,"o":"m 43 96 l 478 624 l 478 624 l 75 624 l 75 624 l 75 675 l 75 726 l 75 726 l 642 726 l 642 678 l 642 630 l 206 102 l 206 102 l 652 102 l 652 102 l 652 51 l 652 0 l 652 0 l 43 0 l 43 47 l 43 96 m 305 823 l 168 1019 l 278 1019 l 370 888 l 370 888 l 461 1019 l 572 1019 l 434 823 l 370 823 l 305 823 z "},"ƒ":{"ha":772,"x_min":-15,"x_max":695,"o":"m 433 544 l 433 544 l 355 98 q 256 -189 323 -93 q 91 -285 189 -285 q -15 -263 29 -285 l 4 -155 l 9 -158 q 92 -175 34 -175 q 178 -108 146 -175 q 241 144 210 -41 l 311 544 l 311 544 l 157 544 l 158 639 l 328 639 l 328 639 l 345 741 q 431 952 370 882 q 590 1023 492 1023 q 695 1002 652 1023 l 676 890 q 670 897 675 895 q 589 913 646 913 q 509 868 536 913 q 459 695 481 822 l 450 639 l 450 639 l 614 639 l 613 544 l 433 544 z "},"ˆ":{"ha":463,"x_min":29,"x_max":433,"o":"m 296 1019 l 433 823 l 323 823 l 231 954 l 231 954 l 140 823 l 29 823 l 167 1019 l 231 1019 l 296 1019 z "},"ˇ":{"ha":463,"x_min":29,"x_max":433,"o":"m 167 823 l 29 1019 l 140 1019 l 231 888 l 231 888 l 323 1019 l 433 1019 l 296 823 l 231 823 l 167 823 z "},"ˉ":{"ha":463,"x_min":20,"x_max":443,"o":"m 20 908 l 443 908 l 443 823 l 20 823 l 20 908 z "},"˘":{"ha":463,"x_min":31,"x_max":460,"o":"m 245 825 q 94 875 150 825 q 31 1015 39 924 l 97 1015 q 148 930 111 958 q 245 903 185 903 q 345 928 311 903 q 394 1015 378 953 l 460 1015 q 397 875 452 924 q 245 825 341 825 z "},"˙":{"ha":463,"x_min":155,"x_max":281,"o":"m 155 981 l 281 981 l 281 839 l 155 839 l 155 981 z "},"˚":{"ha":463,"x_min":104,"x_max":359,"o":"m 232 795 q 141 832 178 795 q 104 922 104 869 q 141 1013 104 976 q 232 1050 178 1050 q 322 1013 286 1050 q 359 922 359 976 q 322 832 359 869 q 232 795 286 795 l 232 795 m 232 850 q 283 871 262 850 q 304 922 304 892 q 283 974 304 953 q 232 995 262 995 q 180 974 201 995 q 159 922 159 953 q 180 871 159 892 q 232 850 201 850 l 232 850 z "},"˛":{"ha":463,"x_min":71,"x_max":368,"o":"m 71 -184 q 113 -68 71 -119 q 224 1 155 -17 l 316 1 l 316 -5 q 210 -81 243 -42 q 177 -173 177 -120 q 196 -229 177 -211 q 255 -247 215 -247 q 301 -241 277 -247 q 344 -225 324 -235 l 368 -281 q 305 -303 342 -295 q 235 -312 269 -312 q 115 -277 161 -312 q 71 -184 71 -241 z "},"˜":{"ha":463,"x_min":-5,"x_max":467,"o":"m -5 840 q 43 956 11 922 q 137 991 76 991 q 191 982 157 991 q 250 961 224 973 q 294 946 269 952 q 338 940 319 940 q 377 956 361 940 q 400 1002 393 972 l 467 1002 q 418 886 450 920 q 326 851 385 851 q 276 860 311 851 q 212 881 242 869 q 164 896 190 890 q 125 902 139 902 q 85 886 101 902 q 62 840 68 870 l -5 840 z "},"˝":{"ha":463,"x_min":39,"x_max":562,"o":"m 39 823 l 163 1019 l 313 1019 l 134 823 l 39 823 m 288 823 l 412 1019 l 562 1019 l 382 823 l 288 823 z "},"π":{"ha":845,"x_min":76,"x_max":806,"o":"m 76 469 q 192 614 138 578 q 348 650 247 650 l 577 651 q 707 653 638 651 q 806 657 775 654 l 785 546 l 581 546 q 562 325 559 430 q 591 98 564 220 q 595 7 606 31 q 543 -17 585 -17 q 476 23 499 -17 q 454 140 454 63 q 469 298 454 204 q 522 546 485 391 l 422 546 l 343 104 q 313 8 331 33 q 254 -17 294 -17 q 202 14 210 -17 q 222 125 195 44 l 365 546 l 301 546 q 213 525 250 546 q 117 442 175 503 l 76 469 z "},"–":{"ha":772,"x_min":0,"x_max":772,"o":"m 0 435 l 772 435 l 772 334 l 0 334 l 0 435 z "},"—":{"ha":1389,"x_min":0,"x_max":1389,"o":"m 0 435 l 1389 435 l 1389 334 l 0 334 l 0 435 z "},"‘":{"ha":309,"x_min":90,"x_max":235,"o":"m 235 728 l 235 654 l 162 654 l 90 654 l 90 778 q 123 936 90 884 q 235 1008 157 989 l 235 1008 l 235 944 l 235 944 q 176 897 192 937 q 161 802 163 865 l 162 802 l 235 802 l 235 728 z "},"’":{"ha":309,"x_min":74,"x_max":218,"o":"m 74 922 l 74 996 l 146 996 l 218 996 l 218 873 q 185 714 218 767 q 74 643 152 662 l 74 643 l 74 707 l 74 707 q 133 754 117 714 q 148 848 146 786 l 146 848 l 74 848 l 74 922 z "},"‚":{"ha":309,"x_min":74,"x_max":218,"o":"m 74 74 l 74 148 l 146 148 l 218 148 l 218 24 q 185 -133 218 -81 q 74 -205 152 -186 l 74 -205 l 74 -141 l 74 -141 q 133 -94 117 -134 q 148 0 146 -63 l 146 0 l 74 0 l 74 74 z "},"“":{"ha":463,"x_min":53,"x_max":427,"o":"m 197 728 l 197 654 l 125 654 l 53 654 l 53 778 q 86 936 53 884 q 197 1008 119 989 l 197 1008 l 197 944 l 197 944 q 138 897 155 937 q 123 802 125 865 l 125 802 l 197 802 l 197 728 m 427 728 l 427 654 l 354 654 l 282 654 l 282 778 q 315 936 282 884 q 427 1008 349 989 l 427 1008 l 427 944 l 427 944 q 368 897 384 937 q 353 802 355 865 l 354 802 l 427 802 l 427 728 z "},"”":{"ha":463,"x_min":36,"x_max":410,"o":"m 36 922 l 36 996 l 109 996 l 180 996 l 180 873 q 147 714 180 767 q 36 643 114 662 l 36 643 l 36 707 l 36 707 q 95 754 79 714 q 110 848 108 786 l 109 848 l 36 848 l 36 922 m 265 922 l 265 996 l 338 996 l 410 996 l 410 873 q 376 714 410 767 q 265 643 343 662 l 265 643 l 265 707 l 265 707 q 324 754 308 714 q 339 848 337 786 l 338 848 l 265 848 l 265 922 z "},"„":{"ha":463,"x_min":36,"x_max":410,"o":"m 36 74 l 36 148 l 109 148 l 180 148 l 180 24 q 147 -134 180 -81 q 36 -205 114 -186 l 36 -205 l 36 -142 l 36 -142 q 95 -94 79 -134 q 110 0 108 -63 l 109 0 l 36 0 l 36 74 m 265 74 l 265 148 l 338 148 l 410 148 l 410 24 q 376 -134 410 -81 q 265 -205 343 -186 l 265 -205 l 265 -142 l 265 -142 q 324 -94 308 -134 q 339 0 337 -63 l 338 0 l 265 0 l 265 74 z "},"†":{"ha":772,"x_min":60,"x_max":714,"o":"m 60 705 l 321 705 l 321 705 l 321 997 l 452 997 l 452 705 l 452 705 l 714 705 l 714 600 l 452 600 l 452 600 l 452 -217 l 321 -217 l 321 600 l 321 600 l 60 600 l 60 705 z "},"‡":{"ha":772,"x_min":60,"x_max":714,"o":"m 60 717 l 321 717 l 321 717 l 321 997 l 452 997 l 452 717 l 452 717 l 714 717 l 714 608 l 452 608 l 452 608 l 452 169 l 452 169 l 714 169 l 714 64 l 452 64 l 452 64 l 452 -217 l 321 -217 l 321 64 l 321 64 l 60 64 l 60 169 l 321 169 l 321 169 l 321 608 l 321 608 l 60 608 l 60 717 z "},"•":{"ha":486,"x_min":25,"x_max":462,"o":"m 243 718 q 398 654 335 718 q 462 498 462 591 q 398 343 462 407 q 243 280 335 280 q 89 343 152 280 q 25 498 25 407 q 89 654 25 591 q 243 718 152 718 z "},"…":{"ha":1389,"x_min":160,"x_max":1229,"o":"m 160 147 l 305 147 l 305 0 l 160 0 l 160 147 m 622 147 l 767 147 l 767 0 l 622 0 l 622 147 m 1084 147 l 1229 147 l 1229 0 l 1084 0 l 1084 147 z "},"‰":{"ha":1389,"x_min":9,"x_max":1377,"o":"m 227 533 q 74 597 138 533 q 9 749 9 661 q 74 902 9 838 q 227 966 138 966 q 380 902 315 966 q 444 749 444 838 q 380 597 444 661 q 227 533 315 533 l 227 533 m 227 892 q 134 850 173 892 q 95 749 95 808 q 134 650 95 692 q 227 608 173 608 q 320 650 281 608 q 359 749 359 692 q 320 850 359 808 q 227 892 281 892 l 227 892 m 134 -23 l 680 977 l 755 977 l 209 -23 l 134 -23 m 662 -4 q 509 60 573 -4 q 445 212 445 124 q 509 365 445 301 q 662 429 573 429 q 815 365 751 429 q 880 212 880 301 q 815 60 880 124 q 662 -4 751 -4 l 662 -4 m 662 355 q 569 313 608 355 q 530 212 530 271 q 569 113 530 155 q 662 71 608 71 q 755 113 716 71 q 794 212 794 155 q 755 313 794 271 q 662 355 716 355 l 662 355 m 1159 -4 q 1006 60 1070 -4 q 942 212 942 124 q 1006 365 942 301 q 1159 429 1070 429 q 1312 365 1248 429 q 1377 212 1377 301 q 1312 60 1377 124 q 1159 -4 1248 -4 l 1159 -4 m 1159 355 q 1066 313 1105 355 q 1027 212 1027 271 q 1066 113 1027 155 q 1159 71 1105 71 q 1252 113 1213 71 q 1291 212 1291 155 q 1252 313 1291 271 q 1159 355 1213 355 l 1159 355 z "},"‹":{"ha":463,"x_min":122,"x_max":340,"o":"m 340 497 l 194 384 l 194 384 l 340 271 l 340 150 l 122 319 l 122 384 l 122 449 l 340 618 l 340 497 z "},"›":{"ha":463,"x_min":122,"x_max":340,"o":"m 122 271 l 269 384 l 269 384 l 122 497 l 122 618 l 340 449 l 340 384 l 340 319 l 122 150 l 122 271 z "},"⁄":{"ha":232,"x_min":-230,"x_max":462,"o":"m 462 977 l -150 -30 l -230 -30 l 382 977 l 462 977 z "},"⁴":{"ha":463,"x_min":14,"x_max":442,"o":"m 265 525 l 14 525 l 14 567 l 14 610 l 283 957 l 320 957 l 357 957 l 357 600 l 357 600 l 442 600 l 442 525 l 357 525 l 357 525 l 357 389 l 265 389 l 265 525 l 265 525 m 265 600 l 265 600 l 265 817 l 265 817 l 265 817 l 104 610 l 96 600 l 96 600 l 265 600 z "},"€":{"ha":772,"x_min":0,"x_max":745,"o":"m 745 307 l 745 307 q 639 62 724 151 q 427 -26 554 -26 q 182 104 269 -26 q 108 312 128 187 l 0 312 l 24 431 l 96 431 l 96 475 l 96 510 l 0 510 l 24 629 l 108 629 q 190 841 131 755 q 440 977 283 977 q 644 895 563 977 q 745 670 725 814 l 745 670 l 615 670 l 615 670 q 551 808 598 760 q 435 857 504 857 q 288 755 342 857 q 247 629 261 702 l 532 629 l 508 510 l 236 510 l 235 475 l 235 431 l 492 431 l 467 312 l 248 312 q 287 193 261 243 q 431 93 338 93 q 548 149 500 93 q 615 307 595 204 l 615 307 l 745 307 z "},"™":{"ha":1389,"x_min":64,"x_max":1254,"o":"m 238 424 l 238 913 l 238 913 l 64 913 l 64 913 l 64 955 l 64 997 l 64 997 l 516 997 l 516 997 l 516 956 l 516 913 l 516 913 l 341 913 l 341 913 l 341 424 l 341 424 l 290 424 l 238 424 l 238 424 m 723 424 l 723 424 l 673 424 l 623 424 l 623 424 l 623 997 l 623 997 l 701 997 l 779 997 l 779 997 l 940 578 l 940 578 l 940 578 l 1099 997 l 1099 997 l 1176 997 l 1254 997 l 1254 997 l 1254 424 l 1254 424 l 1204 424 l 1154 424 l 1154 424 l 1154 895 l 1154 895 l 976 424 l 939 424 l 901 424 l 723 888 l 723 888 l 723 424 z "},"Ω":{"ha":845,"x_min":68,"x_max":819,"o":"m 406 0 l 126 0 l 76 278 l 126 286 q 168 170 149 193 q 245 146 187 148 l 299 146 q 238 255 277 187 q 164 380 199 323 q 94 523 120 452 q 68 646 68 595 q 170 872 68 787 q 444 960 271 958 q 713 873 607 960 q 819 650 819 785 q 794 525 819 597 q 724 380 768 453 q 659 270 698 338 q 589 146 620 202 l 642 146 q 718 175 693 145 q 762 286 743 204 l 811 278 l 761 0 l 481 0 q 569 245 564 229 q 590 311 574 260 q 638 498 621 411 q 654 646 654 585 q 596 826 654 755 q 444 900 537 897 q 292 827 350 897 q 233 648 233 758 q 252 497 233 595 q 298 311 271 399 q 345 169 314 258 q 406 0 376 79 z "},"∂":{"ha":692,"x_min":55,"x_max":635,"o":"m 55 261 q 150 544 55 420 q 365 667 244 667 q 430 656 397 667 q 501 623 463 646 q 490 827 515 751 q 407 903 465 903 q 366 884 388 903 q 331 836 344 865 q 297 780 311 793 q 256 767 283 767 q 198 800 216 767 q 199 872 180 833 q 270 943 221 914 q 370 972 319 972 q 569 867 503 972 q 635 552 635 762 q 536 139 635 300 q 283 -22 437 -22 q 119 58 183 -22 q 55 261 55 137 m 184 220 q 214 89 184 142 q 287 35 243 35 q 412 156 360 35 q 463 448 463 277 q 437 570 463 530 q 357 611 410 611 q 234 497 285 611 q 184 220 184 384 z "},"∆":{"ha":922,"x_min":25,"x_max":897,"o":"m 502 943 l 897 0 l 25 0 l 502 943 m 452 730 l 150 132 l 692 132 l 452 730 z "},"∏":{"ha":1383,"x_min":134,"x_max":1249,"o":"m 134 -214 l 134 -170 q 268 -110 236 -158 q 299 87 299 -61 l 299 698 q 270 893 301 845 q 134 954 238 942 l 134 998 l 1249 998 l 1249 954 q 1115 893 1147 942 q 1084 698 1084 845 l 1084 87 q 1115 -110 1084 -61 q 1249 -170 1147 -158 l 1249 -214 l 772 -214 l 772 -170 q 909 -111 878 -158 q 937 87 939 -63 l 937 943 l 446 943 l 446 87 q 477 -110 446 -61 q 611 -170 509 -158 l 611 -214 l 134 -214 z "},"∑":{"ha":1383,"x_min":282,"x_max":1092,"o":"m 282 -214 l 615 355 l 288 998 l 1047 998 l 1078 749 l 1031 740 l 1019 766 q 923 902 983 863 q 753 942 863 942 l 479 942 l 730 440 l 425 -73 l 780 -73 q 928 -38 873 -73 q 1029 84 983 -3 l 1044 112 l 1092 98 l 1013 -214 l 282 -214 z "},"−":{"ha":811,"x_min":77,"x_max":734,"o":"m 77 400 l 734 400 l 734 298 l 77 298 l 77 400 z "},"∙":{"ha":386,"x_min":107,"x_max":252,"o":"m 107 563 l 252 563 l 252 416 l 107 416 l 107 563 z "},"√":{"ha":999,"x_min":38,"x_max":1168,"o":"m 38 297 l 240 429 l 583 -80 l 909 1037 l 1168 1037 l 1168 979 l 977 979 l 602 -254 l 552 -254 l 165 303 l 67 232 l 38 297 z "},"∞":{"ha":1383,"x_min":192,"x_max":1190,"o":"m 192 386 q 271 591 192 507 q 465 674 350 674 q 607 633 547 674 q 726 496 667 592 q 833 606 777 570 q 954 643 890 643 q 1123 571 1057 643 q 1190 387 1190 500 q 1124 205 1190 277 q 959 132 1058 132 q 831 171 888 132 q 739 280 774 209 q 613 138 667 174 q 473 101 558 101 q 273 184 355 101 q 192 386 192 267 m 267 385 q 314 262 267 312 q 429 212 361 212 q 560 261 503 212 q 668 418 617 311 q 575 529 625 495 q 452 564 524 564 q 321 512 374 564 q 267 385 267 460 m 1114 386 q 1074 492 1114 452 q 967 532 1034 532 q 868 498 910 532 q 785 384 826 464 q 861 279 813 316 q 969 243 909 243 q 1075 281 1036 243 q 1114 386 1114 320 z "},"∫":{"ha":1383,"x_min":510,"x_max":869,"o":"m 510 -216 q 529 -167 510 -188 q 573 -146 547 -146 q 614 -164 597 -146 q 631 -205 631 -181 l 625 -246 q 629 -257 624 -252 q 642 -261 633 -261 q 689 -202 677 -262 q 684 -52 701 -142 q 637 237 659 78 q 606 496 614 395 q 622 925 584 786 q 762 1064 660 1064 q 838 1036 806 1064 q 869 966 869 1007 q 853 913 869 931 q 805 896 837 896 q 762 909 777 896 q 748 948 748 922 q 759 997 748 955 q 755 1006 760 1002 q 741 1010 750 1010 q 687 922 689 1010 q 731 589 685 833 q 777 181 768 396 q 764 -152 787 -33 q 714 -274 749 -233 q 625 -315 679 -315 q 543 -286 576 -315 q 510 -216 510 -258 z "},"≈":{"ha":1383,"x_min":281,"x_max":1139,"o":"m 281 186 q 387 301 319 254 q 515 349 455 349 q 616 334 552 349 q 763 293 681 319 q 862 268 809 278 q 946 258 916 258 q 1036 282 987 258 q 1114 340 1084 306 l 1139 326 q 1047 202 1107 248 q 918 156 987 156 q 847 165 897 156 q 745 189 797 175 q 573 233 635 219 q 484 247 510 247 q 388 223 441 247 q 302 165 335 199 l 281 186 m 281 425 q 387 539 319 492 q 515 587 455 587 q 616 572 552 587 q 763 531 681 557 q 862 506 809 516 q 946 496 916 496 q 1036 520 987 496 q 1114 578 1084 544 l 1139 564 q 1047 440 1107 486 q 918 394 987 394 q 847 404 897 394 q 745 427 797 413 q 573 471 635 457 q 484 485 510 485 q 388 461 441 485 q 302 403 335 437 l 281 425 z "},"≠":{"ha":1383,"x_min":276,"x_max":1137,"o":"m 278 -63 l 494 189 l 276 189 l 276 281 l 572 281 l 732 468 l 276 468 l 276 559 l 810 559 l 1025 808 l 1137 808 l 923 559 l 1135 559 l 1135 468 l 845 468 l 685 281 l 1135 281 l 1135 189 l 606 189 l 391 -63 l 278 -63 z "},"≤":{"ha":1383,"x_min":283,"x_max":1141,"o":"m 1141 838 l 1141 746 l 420 468 l 1141 258 l 1141 167 l 283 422 l 283 514 l 1141 838 m 283 92 l 1141 92 l 1141 0 l 283 0 l 283 92 z "},"≥":{"ha":1383,"x_min":283,"x_max":1141,"o":"m 283 838 l 1141 514 l 1141 422 l 283 167 l 283 258 l 1004 468 l 283 746 l 283 838 m 283 92 l 1141 92 l 1141 0 l 283 0 l 283 92 z "},"◊":{"ha":794,"x_min":85,"x_max":708,"o":"m 359 965 l 434 965 l 708 482 l 434 0 l 359 0 l 85 482 l 359 965 m 397 898 l 160 482 l 397 65 l 633 482 l 397 898 z "},"":{"ha":463,"x_min":155,"x_max":281,"o":"m 155 1252 l 281 1252 l 281 1110 l 155 1110 l 155 1252 z "},"":{"ha":463,"x_min":31,"x_max":460,"o":"m 245 1097 q 94 1146 150 1097 q 31 1286 39 1196 l 97 1286 q 148 1202 111 1230 q 245 1174 185 1174 q 345 1199 311 1174 q 394 1286 378 1224 l 460 1286 q 397 1146 452 1196 q 245 1097 341 1097 z "},"":{"ha":463,"x_min":20,"x_max":443,"o":"m 20 1179 l 443 1179 l 443 1095 l 20 1095 l 20 1179 z "},"":{"ha":463,"x_min":39,"x_max":562,"o":"m 39 1097 l 163 1292 l 313 1292 l 134 1097 l 39 1097 m 288 1097 l 412 1292 l 562 1292 l 382 1097 l 288 1097 z "},"":{"ha":463,"x_min":71,"x_max":368,"o":"m 71 -184 q 113 -68 71 -119 q 224 1 155 -17 l 316 1 l 316 -5 q 210 -81 243 -42 q 177 -173 177 -120 q 196 -229 177 -211 q 255 -247 215 -247 q 301 -241 277 -247 q 344 -225 324 -235 l 368 -281 q 305 -303 342 -295 q 235 -312 269 -312 q 115 -277 161 -312 q 71 -184 71 -241 z "},"":{"ha":463,"x_min":62,"x_max":359,"o":"m 264 1 l 201 -85 l 201 -85 l 242 -81 q 328 -109 297 -81 q 359 -185 359 -136 q 314 -277 359 -242 q 196 -313 269 -313 q 135 -304 172 -313 q 62 -283 98 -296 l 85 -227 q 135 -241 110 -236 q 176 -247 160 -247 q 235 -233 216 -247 q 254 -189 254 -218 q 235 -150 254 -165 q 187 -134 216 -134 q 165 -137 180 -134 q 133 -146 150 -140 l 110 -120 l 199 1 l 264 1 z "},"":{"ha":463,"x_min":104,"x_max":359,"o":"m 232 1036 q 141 1073 178 1036 q 104 1164 104 1110 q 141 1254 104 1217 q 232 1291 178 1291 q 322 1254 286 1291 q 359 1164 359 1217 q 322 1073 359 1110 q 232 1036 286 1036 l 232 1036 m 232 1091 q 283 1112 262 1091 q 304 1164 304 1133 q 283 1215 304 1194 q 232 1236 262 1236 q 180 1215 201 1236 q 159 1164 159 1194 q 180 1112 159 1133 q 232 1091 201 1091 l 232 1091 z "},"":{"ha":463,"x_min":29,"x_max":433,"o":"m 167 1095 l 29 1290 l 140 1290 l 231 1160 l 231 1160 l 323 1290 l 433 1290 l 296 1095 l 231 1095 l 167 1095 z "},"":{"ha":463,"x_min":-5,"x_max":467,"o":"m -5 1110 q 43 1226 11 1192 q 137 1261 76 1261 q 191 1252 157 1261 q 250 1231 225 1243 q 295 1216 269 1222 q 338 1210 320 1210 q 377 1226 361 1210 q 400 1272 393 1242 l 467 1272 q 418 1156 450 1190 q 326 1121 385 1121 q 276 1130 310 1121 q 212 1151 242 1139 q 164 1166 190 1160 q 125 1172 139 1172 q 85 1156 101 1172 q 62 1110 68 1140 l -5 1110 z "},"":{"ha":463,"x_min":56,"x_max":407,"o":"m 56 1253 l 182 1253 l 182 1110 l 56 1110 l 56 1253 m 281 1253 l 407 1253 l 407 1110 l 281 1110 l 281 1253 z "},"":{"ha":463,"x_min":29,"x_max":433,"o":"m 296 1290 l 433 1095 l 323 1095 l 231 1225 l 231 1225 l 140 1095 l 29 1095 l 167 1290 l 231 1290 l 296 1290 z "},"":{"ha":463,"x_min":20,"x_max":293,"o":"m 201 1095 l 20 1290 l 171 1290 l 293 1095 l 201 1095 z "},"":{"ha":463,"x_min":170,"x_max":443,"o":"m 170 1095 l 293 1290 l 443 1290 l 264 1095 l 170 1095 z "},"":{"ha":694,"x_min":20,"x_max":603,"o":"m 242 625 l 242 625 l 242 0 l 242 0 l 181 0 l 120 0 l 120 0 l 120 625 l 120 625 l 20 625 l 20 726 l 120 726 l 120 726 l 120 849 q 168 970 120 930 q 310 1011 215 1011 l 363 1009 l 363 899 l 315 901 q 261 879 280 901 q 242 814 242 856 l 242 726 l 242 726 l 363 726 l 363 625 l 242 625 m 479 0 l 479 726 l 479 726 l 541 726 l 602 726 l 602 726 l 602 0 l 602 0 l 541 0 l 479 0 l 479 0 m 478 997 l 603 997 l 603 859 l 478 859 l 478 997 z "},"":{"ha":694,"x_min":20,"x_max":602,"o":"m 242 625 l 242 625 l 242 0 l 242 0 l 181 0 l 120 0 l 120 0 l 120 625 l 120 625 l 20 625 l 20 726 l 120 726 l 120 726 l 120 849 q 168 970 120 930 q 310 1011 215 1011 l 363 1009 l 363 899 l 315 901 q 261 879 280 901 q 242 814 242 856 l 242 726 l 242 726 l 363 726 l 363 625 l 242 625 m 479 0 l 479 997 l 479 997 l 541 997 l 602 997 l 602 997 l 602 0 l 602 0 l 541 0 l 479 0 l 479 0 z "},"ﬁ":{"ha":694,"x_min":20,"x_max":603,"o":"m 242 625 l 242 625 l 242 0 l 242 0 l 181 0 l 120 0 l 120 0 l 120 625 l 120 625 l 20 625 l 20 726 l 120 726 l 120 726 l 120 849 q 168 970 120 930 q 310 1011 215 1011 l 363 1009 l 363 899 l 315 901 q 261 879 280 901 q 242 814 242 856 l 242 726 l 242 726 l 363 726 l 363 625 l 242 625 m 479 0 l 479 726 l 479 726 l 541 726 l 602 726 l 602 726 l 602 0 l 602 0 l 541 0 l 479 0 l 479 0 m 478 997 l 603 997 l 603 859 l 478 859 l 478 997 z "},"ﬂ":{"ha":694,"x_min":20,"x_max":602,"o":"m 242 625 l 242 625 l 242 0 l 242 0 l 181 0 l 120 0 l 120 0 l 120 625 l 120 625 l 20 625 l 20 726 l 120 726 l 120 726 l 120 849 q 168 970 120 930 q 310 1011 215 1011 l 363 1009 l 363 899 l 315 901 q 261 879 280 901 q 242 814 242 856 l 242 726 l 242 726 l 363 726 l 363 625 l 242 625 m 479 0 l 479 997 l 479 997 l 541 997 l 602 997 l 602 997 l 602 0 l 602 0 l 541 0 l 479 0 l 479 0 z "}}}
